<?xml version="1.0" encoding="utf-8"?>
<!-- Generator: Adobe Illustrator 27.5.0, SVG Export Plug-In . SVG Version: 6.00 Build 0)  -->
<svg version="1.1" id="Layer_1" xmlns="http://www.w3.org/2000/svg" xmlns:xlink="http://www.w3.org/1999/xlink" x="0px" y="0px"
	 viewBox="-963.547 2.996 14.771 12.938" style="enable-background:new -963.547 2.996 14.771 12.938;" xml:space="preserve">
<rect x="-963.547" y="2.995" style="fill:#FFFFFF;" width="14.771" height="12.938"/>
<g>
	<path d="M-954.656,13.539c0,0.323-1.081,0.584-2.414,0.584s-2.414-0.261-2.414-0.584c0-0.32,1.081-0.581,2.414-0.581
		S-954.656,13.219-954.656,13.539z"/>
	<g>
		<path style="fill:#F5F5F5;" d="M-958.517,13.271l0.235-0.597l0.11-0.274l0.144-0.253c0,0,0.091,0.12,0.232,0.12
			c0.141,0,0.377,0.039,0.377,0.039l-0.256,0.447l-0.081,0.016l-0.055,0.502l-0.119,0.079l0.119,0.172l0.063,0.407l-0.157,0.087
			l-0.172-0.055l-0.251-0.472l-0.102-0.189L-958.517,13.271z"/>
		<path style="fill:#F5F5F5;" d="M-956.243,13.065l0.025-0.641l0.013-0.295l0.053-0.287c0,0,0.126,0.083,0.258,0.037
			c0.134-0.048,0.369-0.088,0.369-0.088l-0.095,0.507l-0.071,0.042l0.115,0.492l-0.086,0.114l0.169,0.121l0.194,0.364l-0.12,0.134
			l-0.181,0.005l-0.392-0.361l-0.159-0.144L-956.243,13.065z"/>
		<g>
			<g>
				<path d="M-955.297,9.13c0.008,0,0.015,0.005,0.019,0.012c0.005,0.006,0.008,0.014,0.005,0.023
					c-0.005,0.023-0.013,0.05-0.025,0.082c-0.012,0.034-0.03,0.065-0.052,0.098c-0.024,0.034-0.05,0.059-0.077,0.076
					c-0.03,0.019-0.059,0.028-0.091,0.028c-0.033,0-0.063-0.01-0.093-0.033c-0.028-0.021-0.05-0.048-0.062-0.078
					c-0.01-0.021-0.017-0.042-0.021-0.067c-0.004-0.025-0.005-0.05-0.004-0.075c0-0.025,0.004-0.05,0.009-0.075
					c0.005-0.026,0.013-0.051,0.021-0.072c0.018-0.043,0.04-0.079,0.068-0.104c0.029-0.024,0.06-0.038,0.095-0.041
					c0.021-0.004,0.037,0.001,0.052,0.011c0.013,0.011,0.025,0.023,0.031,0.038c0.007,0.017,0.009,0.034,0.009,0.052
					c-0.001,0.017-0.003,0.035-0.012,0.051c-0.003,0.007-0.006,0.01-0.011,0.013c-0.003,0.003-0.005,0.008-0.008,0.009
					c-0.002,0-0.004,0-0.004-0.001c0-0.005,0.001-0.008,0.006-0.014c0.002-0.007,0.002-0.011,0.002-0.013
					c-0.001-0.002-0.002-0.002-0.003,0.002c0,0.001-0.004,0.011-0.009,0.02c0,0.006-0.003,0.006-0.006,0.005
					c-0.002-0.004-0.005-0.005-0.005-0.008c-0.002-0.003-0.003-0.003-0.003,0c0,0.002-0.001,0.003-0.004,0.003
					c-0.007,0-0.011-0.006-0.012-0.013c-0.001-0.011-0.001-0.02,0-0.031c0-0.01,0-0.021,0-0.033c0-0.011-0.002-0.018-0.008-0.023
					l-0.011,0.013c-0.024,0.023-0.044,0.068-0.06,0.135c-0.001,0.01-0.003,0.021-0.004,0.034c-0.001,0.014-0.002,0.025-0.003,0.039
					c-0.002,0.016-0.002,0.029-0.002,0.041c0,0.011,0,0.023,0.002,0.031c0.002,0.015,0.004,0.028,0.007,0.041
					c0.004,0.015,0.008,0.027,0.013,0.036c0.009,0.022,0.02,0.033,0.034,0.039c0.013,0.006,0.026,0.004,0.04,0
					c0.015-0.006,0.028-0.016,0.042-0.029c0.014-0.012,0.026-0.025,0.036-0.04c0.018-0.026,0.032-0.051,0.044-0.082
					c0.01-0.028,0.019-0.052,0.023-0.075c0.002-0.006,0.005-0.013,0.012-0.018C-955.312,9.13-955.304,9.128-955.297,9.13
					L-955.297,9.13z M-955.643,9.128c0.005-0.017,0.01-0.034,0.017-0.059c0.006-0.02,0.013-0.037,0.018-0.05
					c0.006-0.011,0.007-0.015,0.007-0.018c-0.007,0.007-0.012,0.017-0.018,0.03c-0.005,0.012-0.009,0.026-0.014,0.037
					c-0.004,0.016-0.007,0.029-0.01,0.04c-0.003,0.011-0.004,0.021-0.005,0.024c-0.002,0.014-0.002,0.022,0,0.018
					C-955.649,9.151-955.647,9.145-955.643,9.128L-955.643,9.128z M-955.601,9.13c0.003-0.019,0.008-0.036,0.014-0.055
					c0.005-0.019,0.012-0.035,0.017-0.05c0.002-0.003,0.004-0.006,0.004-0.007c0,0,0.002-0.006,0.003-0.006
					c0.001-0.004,0.002-0.005,0.002-0.007c-0.004,0.003-0.009,0.01-0.013,0.019c-0.006,0.011-0.01,0.021-0.015,0.033
					c-0.003,0.011-0.007,0.023-0.01,0.035c-0.002,0.011-0.003,0.017-0.005,0.022c-0.002,0.018-0.004,0.03-0.002,0.032
					C-955.606,9.151-955.606,9.145-955.601,9.13L-955.601,9.13z M-954.923,9.151c0.008,0,0.012,0.005,0.017,0.014
					c0.003,0.006,0.005,0.016,0.002,0.022c-0.005,0.008-0.011,0.023-0.019,0.047c-0.008,0.024-0.019,0.051-0.03,0.081
					c-0.013,0.031-0.024,0.063-0.038,0.095c-0.014,0.035-0.03,0.065-0.046,0.094c-0.017,0.026-0.034,0.052-0.053,0.071
					c-0.019,0.021-0.039,0.03-0.06,0.034c-0.036,0.002-0.066-0.003-0.088-0.017c-0.023-0.014-0.038-0.035-0.047-0.059
					c-0.011-0.026-0.015-0.056-0.015-0.089c0-0.031,0.003-0.064,0.01-0.099c0.007-0.034,0.016-0.066,0.027-0.098
					c0.012-0.031,0.024-0.06,0.038-0.083c0.004-0.009,0.007-0.015,0.011-0.021c0.001-0.009,0.002-0.012,0.001-0.012
					c0,0.008-0.005,0.018-0.013,0.026c-0.009,0.01-0.019,0.018-0.031,0.025c-0.013,0.007-0.026,0.012-0.042,0.013
					c-0.016,0.004-0.03-0.001-0.046-0.009c-0.023-0.009-0.039-0.028-0.047-0.056c-0.007-0.027-0.011-0.057-0.008-0.086
					c0.001-0.029,0.007-0.057,0.017-0.083c0.011-0.024,0.023-0.041,0.036-0.049c0.011-0.005,0.022-0.009,0.033-0.01
					c0.013-0.001,0.023,0,0.035,0.003c0.01,0.002,0.021,0.006,0.029,0.013c0.009,0.007,0.016,0.015,0.02,0.022
					c0.005,0.015,0.006,0.033,0.006,0.056c-0.001,0.023-0.006,0.045-0.013,0.067c0.011-0.008,0.023-0.018,0.036-0.029
					c0.011-0.012,0.023-0.019,0.032-0.019c0.042-0.01,0.072-0.006,0.085,0.009c0.015,0.014,0.015,0.047,0.001,0.093
					c-0.007,0.027-0.017,0.058-0.027,0.094c-0.011,0.035-0.02,0.071-0.027,0.107c-0.009,0.036-0.014,0.073-0.016,0.108
					c-0.002,0.036,0,0.067,0.007,0.099c0.007-0.007,0.014-0.012,0.02-0.019c0.008-0.007,0.016-0.017,0.023-0.027
					c0.008-0.011,0.017-0.023,0.026-0.041c0.01-0.015,0.02-0.035,0.031-0.059c0.012-0.025,0.024-0.051,0.035-0.075
					c0.009-0.026,0.019-0.049,0.027-0.068c0.007-0.021,0.013-0.036,0.018-0.05c0.005-0.014,0.008-0.02,0.008-0.02
					c0-0.007,0.006-0.012,0.013-0.017C-954.937,9.15-954.929,9.147-954.923,9.151L-954.923,9.151z M-955.312,9.117
					c0.004-0.031,0.011-0.061,0.015-0.09c0.007-0.031,0.005-0.056-0.005-0.081c-0.005,0.01-0.009,0.019-0.01,0.025
					c-0.002,0.006-0.004,0.01-0.006,0.017c-0.002,0.007-0.005,0.017-0.007,0.03c-0.002,0.011-0.003,0.024-0.003,0.04
					c0,0.011,0.001,0.025,0.004,0.038C-955.323,9.108-955.318,9.115-955.312,9.117L-955.312,9.117z M-955.117,9.104
					c-0.002-0.005-0.005-0.003-0.011,0.007c-0.004,0.014-0.01,0.027-0.017,0.044c-0.005,0.016-0.011,0.031-0.016,0.047
					c-0.005,0.016-0.008,0.024-0.008,0.028c-0.013,0.024-0.022,0.047-0.03,0.065c-0.006,0.017-0.013,0.035-0.017,0.052
					c-0.005,0.012-0.009,0.025-0.01,0.037c-0.001,0.013-0.001,0.026-0.001,0.04v0.024l0.001-0.019
					c0.006-0.037,0.018-0.077,0.031-0.121c0.013-0.045,0.033-0.099,0.063-0.162c0.005-0.01,0.007-0.02,0.01-0.03
					C-955.117,9.109-955.117,9.104-955.117,9.104L-955.117,9.104z M-955.239,9.308c-0.011,0.028-0.018,0.05-0.018,0.063
					c-0.003,0.016-0.004,0.031-0.006,0.046c-0.002,0.004-0.002,0.009,0,0.012c0,0.004,0,0.006,0,0.009v0.01
					c0.002,0.001,0.003,0.001,0.005-0.003c0.001-0.004,0.001-0.014,0.002-0.031c0.006-0.03,0.014-0.067,0.028-0.114
					c0.013-0.045,0.03-0.09,0.05-0.135c0.003-0.008,0.007-0.014,0.01-0.02c0.002-0.008,0.003-0.013,0.005-0.017
					c0.003-0.007,0.005-0.012,0.007-0.017c-0.001,0-0.005,0.009-0.013,0.026c-0.007,0.018-0.015,0.037-0.024,0.058
					c-0.009,0.022-0.019,0.043-0.027,0.066C-955.229,9.282-955.235,9.3-955.239,9.308L-955.239,9.308z M-954.867,8.794
					c0-0.002,0.001-0.002,0.003-0.002c0.004,0,0.002,0.003,0,0.006c-0.003,0.006-0.003,0.009-0.002,0.009
					c0,0,0.005-0.003,0.01-0.009c0.003-0.003,0.007-0.004,0.011-0.004c0.002,0,0.004,0.001,0.004,0.004
					c0,0.006,0.001,0.006,0.005,0.002c0.003-0.004,0.005-0.004,0.006,0c0,0.004,0.003,0.008,0.007,0.012
					c0.002,0.005,0.004,0.006,0.007,0.005c0.003,0,0.009,0.001,0.015,0.009c0.005,0.007,0.008,0.015,0.009,0.018
					c0,0.006-0.003,0.012-0.009,0.019c-0.006,0.005-0.008,0.012-0.008,0.013c0.001,0.004-0.001,0.008-0.005,0.01
					c-0.005,0.004-0.008,0.006-0.011,0.004c-0.003-0.001-0.005-0.001-0.006,0c0,0.004-0.003,0.005-0.004,0.005
					c-0.001,0-0.005-0.003-0.006-0.006c-0.003-0.003-0.004-0.003-0.004,0c0,0.007-0.003,0.008-0.01,0.005
					c-0.002-0.004-0.004-0.004-0.004-0.004c-0.002,0-0.004,0-0.01-0.001c-0.025-0.014-0.034-0.033-0.029-0.058
					c0.002-0.013,0.006-0.022,0.011-0.029c0.006-0.006,0.009-0.007,0.016-0.006C-954.871,8.795-954.87,8.795-954.867,8.794
					L-954.867,8.794z M-954.628,9.145c0.007,0,0.014,0.006,0.018,0.011c0.006,0.008,0.006,0.014,0.006,0.022
					c0,0-0.003,0.016-0.009,0.043c-0.008,0.025-0.015,0.058-0.028,0.093c-0.007,0.018-0.015,0.039-0.024,0.065
					c-0.01,0.024-0.022,0.049-0.037,0.07c-0.016,0.02-0.032,0.041-0.051,0.056c-0.02,0.013-0.042,0.022-0.067,0.022
					c-0.048,0-0.089-0.015-0.12-0.041c-0.032-0.029-0.049-0.066-0.053-0.119c-0.003-0.019-0.002-0.042,0-0.066
					c0.002-0.023,0.008-0.055,0.016-0.091c0.005-0.025,0.01-0.044,0.016-0.064c0.005-0.02,0.012-0.042,0.018-0.063
					c0.003-0.005,0.006-0.014,0.008-0.026c0.004-0.013,0.007-0.024,0.012-0.035c0.003-0.014,0.008-0.023,0.01-0.033
					c0.005-0.011,0.008-0.017,0.012-0.019c0.004-0.006,0.012-0.007,0.02-0.005c0.007,0.003,0.013,0.005,0.015,0.002
					c0.004-0.004,0.005-0.004,0.005,0.003v0.005c0.004-0.005,0.008-0.01,0.009-0.011c0.002-0.001,0.004-0.001,0.005-0.001
					c0.001,0.001,0.004,0.002,0.006,0.002c0.002,0.002,0.005,0.005,0.011,0.01l0.009,0.003l0.001,0.024
					c0.001,0.033,0,0.063-0.004,0.095c-0.004,0.031-0.01,0.062-0.016,0.093c-0.006,0.031-0.012,0.063-0.016,0.094
					c-0.006,0.029-0.007,0.061-0.006,0.094c0,0.008,0,0.019,0.003,0.032c0.004,0.013,0.007,0.024,0.012,0.035
					c0.005,0.01,0.013,0.02,0.021,0.025c0.008,0.003,0.021,0,0.033-0.007c0.018-0.011,0.035-0.028,0.049-0.056
					c0.016-0.025,0.028-0.052,0.038-0.082c0.012-0.031,0.021-0.059,0.028-0.087c0.008-0.029,0.013-0.052,0.016-0.068
					c0-0.009,0.006-0.015,0.012-0.019C-954.643,9.145-954.636,9.141-954.628,9.145L-954.628,9.145z M-954.955,9.397
					c-0.002-0.001-0.003-0.001-0.003-0.007c0-0.004,0-0.009,0-0.016c0-0.005-0.002-0.011-0.002-0.017
					c0-0.006-0.001-0.012-0.002-0.015V9.312V9.296c0,0.003,0,0.005,0,0.007c-0.002,0.004-0.003,0.006-0.003,0.007
					c0,0.004,0,0.008,0,0.012c0,0.006-0.001,0.014-0.002,0.021c0,0.007,0,0.012,0.001,0.016c0,0.003,0.001,0.007,0.001,0.012
					s0.002,0.01,0.003,0.015c0.001,0.006,0.003,0.011,0.004,0.013c0,0.004,0.001,0.006,0.003,0.006V9.397z M-954.266,9.13
					c0.009,0,0.015,0.005,0.021,0.012c0.004,0.006,0.005,0.014,0.004,0.023c-0.004,0.023-0.012,0.05-0.024,0.082
					c-0.012,0.034-0.028,0.065-0.051,0.098c-0.025,0.034-0.051,0.059-0.079,0.076c-0.028,0.019-0.059,0.028-0.092,0.028
					c-0.032,0-0.061-0.01-0.091-0.033c-0.029-0.021-0.05-0.048-0.065-0.078c-0.009-0.021-0.016-0.042-0.019-0.067
					c-0.004-0.025-0.005-0.05-0.004-0.075c0-0.025,0.004-0.05,0.009-0.075c0.006-0.026,0.013-0.051,0.021-0.072
					c0.017-0.043,0.039-0.079,0.068-0.104c0.028-0.024,0.06-0.038,0.094-0.041c0.021-0.004,0.038,0.001,0.052,0.011
					c0.015,0.011,0.025,0.023,0.032,0.038c0.006,0.017,0.01,0.034,0.01,0.052c-0.001,0.017-0.007,0.035-0.013,0.051
					c-0.004,0.007-0.006,0.01-0.01,0.013c-0.004,0.003-0.008,0.008-0.009,0.009c-0.003,0-0.004,0-0.004-0.001
					c0-0.005,0.002-0.008,0.006-0.014c0.003-0.007,0.003-0.011,0.002-0.013c-0.001-0.002-0.002-0.002-0.003,0.002
					c-0.001,0.001-0.004,0.011-0.008,0.02c-0.001,0.006-0.003,0.006-0.006,0.005c-0.004-0.004-0.006-0.005-0.006-0.008
					c-0.002-0.003-0.002-0.003-0.002,0c0,0.002-0.002,0.003-0.006,0.003c-0.006,0-0.011-0.006-0.012-0.013c0-0.011,0-0.02,0-0.031
					c0-0.01,0-0.021,0-0.033c0-0.011-0.003-0.018-0.006-0.023l-0.013,0.013c-0.025,0.023-0.044,0.068-0.059,0.135
					c-0.002,0.01-0.004,0.021-0.005,0.034c0,0.014-0.002,0.025-0.002,0.039c-0.003,0.016-0.003,0.029-0.003,0.041
					c0,0.011,0,0.023,0.003,0.031c0.002,0.015,0.003,0.028,0.007,0.041c0.003,0.015,0.006,0.027,0.012,0.036
					c0.009,0.022,0.021,0.033,0.034,0.039c0.013,0.006,0.027,0.004,0.041,0c0.013-0.006,0.027-0.016,0.042-0.029
					c0.014-0.012,0.026-0.025,0.035-0.04c0.019-0.026,0.034-0.051,0.044-0.082c0.012-0.028,0.019-0.052,0.022-0.075
					c0.002-0.006,0.007-0.013,0.012-0.018C-954.28,9.13-954.272,9.128-954.266,9.13L-954.266,9.13z M-954.612,9.128
					c0.003-0.017,0.008-0.034,0.017-0.059c0.006-0.02,0.012-0.037,0.018-0.05c0.005-0.011,0.007-0.015,0.007-0.018
					c-0.006,0.007-0.013,0.017-0.017,0.03c-0.006,0.012-0.011,0.026-0.014,0.037c-0.004,0.016-0.008,0.029-0.01,0.04
					c-0.002,0.011-0.003,0.021-0.005,0.024c-0.002,0.014-0.003,0.022-0.002,0.018C-954.617,9.151-954.615,9.145-954.612,9.128
					L-954.612,9.128z M-954.57,9.13c0.004-0.019,0.008-0.036,0.014-0.055c0.006-0.019,0.012-0.035,0.017-0.05
					c0.003-0.003,0.005-0.006,0.005-0.007c0.001,0,0.001-0.006,0.001-0.006c0.002-0.004,0.003-0.005,0.004-0.007
					c-0.004,0.003-0.01,0.01-0.015,0.019c-0.005,0.011-0.009,0.021-0.013,0.033c-0.005,0.011-0.007,0.023-0.011,0.035
					c-0.003,0.011-0.004,0.017-0.005,0.022c-0.003,0.018-0.003,0.03-0.003,0.032C-954.576,9.151-954.573,9.145-954.57,9.13
					L-954.57,9.13z M-953.706,9.145c0.007,0,0.015,0.006,0.02,0.011c0.006,0.008,0.008,0.014,0.006,0.022
					c0,0-0.001,0.005-0.003,0.019c-0.002,0.012-0.005,0.026-0.009,0.047c-0.003,0.019-0.009,0.044-0.014,0.065
					c-0.006,0.025-0.013,0.051-0.019,0.078c-0.006,0.021-0.013,0.05-0.02,0.084c-0.005,0.035-0.016,0.066-0.027,0.1
					c-0.012,0.033-0.028,0.065-0.047,0.091c-0.02,0.024-0.044,0.038-0.073,0.043c-0.031,0-0.058-0.014-0.076-0.033
					c-0.02-0.022-0.035-0.05-0.048-0.079c-0.012-0.031-0.021-0.064-0.027-0.097c-0.005-0.032-0.013-0.062-0.017-0.082
					c-0.002,0.01-0.003,0.021-0.002,0.034c0.002,0.012,0.002,0.023,0.002,0.036c0.003,0.012,0.003,0.024,0,0.036
					c0,0.01,0,0.023-0.005,0.033c-0.003,0.009-0.006,0.015-0.008,0.018c-0.002,0.003-0.003,0.004-0.005,0.004
					c-0.002,0-0.002-0.001-0.002-0.004c-0.006,0.004-0.013,0.005-0.02,0.007c-0.011,0.005-0.019,0.007-0.024,0.007
					c0-0.005,0-0.006-0.002-0.009c-0.001-0.002-0.004-0.001-0.005,0.004c-0.001,0.005-0.005,0.006-0.01,0.005
					c-0.004,0-0.006-0.002-0.009-0.007l-0.001-0.005c-0.003,0.005-0.009,0.007-0.013,0.007c-0.003,0-0.011-0.001-0.018-0.005
					c-0.007-0.004-0.012-0.006-0.015-0.006c-0.002-0.001-0.005-0.004-0.008-0.007c-0.006-0.004-0.008-0.007-0.012-0.009
					c-0.005-0.004-0.009-0.007-0.011-0.012c-0.003-0.003-0.004-0.004-0.006-0.008c-0.009,0-0.016-0.006-0.021-0.023
					c-0.008-0.015-0.012-0.034-0.018-0.06c-0.004-0.023-0.008-0.051-0.011-0.081c-0.004-0.029-0.007-0.061-0.01-0.09
					c0-0.03-0.003-0.057-0.005-0.083c-0.002-0.023-0.002-0.046-0.002-0.06c0-0.017,0-0.036,0.004-0.058
					c0.002-0.021,0.004-0.042,0.007-0.061c0.004-0.044,0.012-0.089,0.024-0.135c0.012-0.045,0.025-0.081,0.041-0.109
					c0.01-0.021,0.02-0.033,0.034-0.046c0.014-0.012,0.027-0.018,0.041-0.024c0.008-0.003,0.018-0.003,0.026-0.003
					c0.009,0.002,0.018,0.003,0.026,0.007c0.015,0.009,0.028,0.02,0.036,0.033c0.01,0.013,0.018,0.029,0.023,0.048
					c0.003,0.018,0.007,0.034,0.007,0.053c0.001,0.019,0,0.038-0.001,0.053c-0.004,0.033-0.014,0.073-0.032,0.117
					c-0.017,0.046-0.041,0.094-0.069,0.143c0.002,0.033,0.004,0.066,0.007,0.103c0.001,0.035,0.008,0.069,0.021,0.102
					c0.012-0.048,0.021-0.096,0.032-0.143c0.01-0.048,0.027-0.097,0.046-0.141c0.007-0.014,0.015-0.031,0.024-0.05
					c0.011-0.019,0.023-0.036,0.035-0.053c0.014-0.019,0.026-0.034,0.039-0.05c0.016-0.016,0.03-0.026,0.043-0.031
					c0.016-0.009,0.029-0.009,0.044-0.005c0.014,0.005,0.028,0.017,0.041,0.036c0.009,0.014,0.011,0.03,0.011,0.05
					c-0.002,0.018-0.006,0.038-0.014,0.058c-0.007,0.019-0.016,0.037-0.026,0.059c-0.01,0.017-0.019,0.033-0.029,0.046
					c-0.005,0.014-0.015,0.027-0.025,0.04c-0.01,0.016-0.021,0.029-0.033,0.044c-0.012,0.017-0.023,0.028-0.034,0.042
					c-0.012,0.014-0.023,0.024-0.031,0.032c0.008,0.027,0.013,0.056,0.017,0.082c0.004,0.031,0.009,0.06,0.012,0.088
					c0.004,0.03,0.01,0.059,0.018,0.088c0.006,0.026,0.018,0.053,0.035,0.077c0.005,0.01,0.012,0.011,0.019,0.011
					c0.007-0.001,0.014-0.006,0.02-0.014c0.006-0.008,0.012-0.018,0.017-0.027c0.004-0.009,0.009-0.018,0.012-0.025
					c0.006-0.01,0.012-0.027,0.019-0.05c0.007-0.022,0.013-0.047,0.021-0.076c0.005-0.027,0.013-0.057,0.018-0.087
					c0.007-0.031,0.013-0.059,0.018-0.085c0.006-0.027,0.009-0.051,0.014-0.07c0.003-0.019,0.007-0.031,0.007-0.037
					c0.001-0.009,0.005-0.015,0.01-0.019C-953.72,9.145-953.714,9.143-953.706,9.145L-953.706,9.145z M-954.145,9.08
					c0.005-0.011,0.012-0.023,0.018-0.037c0.006-0.014,0.012-0.024,0.017-0.038c0.012-0.033,0.023-0.066,0.028-0.092
					c0.006-0.028,0.008-0.051,0.006-0.079c0-0.014-0.002-0.029-0.006-0.04c-0.003-0.014-0.006-0.026-0.011-0.035
					c-0.006-0.01-0.01-0.017-0.014-0.018c-0.003-0.001-0.008,0.002-0.017,0.011c-0.016,0.025-0.026,0.061-0.029,0.098
					c-0.005,0.036-0.006,0.075-0.003,0.107C-954.155,8.996-954.15,9.039-954.145,9.08L-954.145,9.08z M-954.137,9.101
					c0.006-0.01,0.014-0.024,0.019-0.038c0.008-0.014,0.012-0.026,0.018-0.038c0.002-0.01,0.007-0.019,0.011-0.029
					c0.003-0.01,0.005-0.019,0.007-0.022c0.004-0.013,0.006-0.019,0.006-0.019c-0.001-0.001-0.003,0.004-0.008,0.017
					c-0.004,0.015-0.013,0.033-0.021,0.055c-0.01,0.021-0.02,0.042-0.031,0.065V9.101z M-954.135,9.121c0,0.005,0,0.009,0,0.009
					c0.021-0.033,0.038-0.071,0.055-0.111c0.003-0.014,0.007-0.026,0.012-0.037c0.004-0.007,0.005-0.013,0.005-0.014
					c-0.001,0.001-0.003,0.004-0.003,0.007c-0.002,0-0.003,0.003-0.003,0.007c0,0.004-0.003,0.006-0.004,0.011
					c-0.006,0.017-0.015,0.037-0.026,0.058C-954.108,9.069-954.12,9.094-954.135,9.121L-954.135,9.121L-954.135,9.121z
					 M-953.831,9.058c0,0.002-0.002,0.003-0.004,0.005c-0.002,0.001-0.002,0.003-0.002,0.006c0,0.001-0.003,0.005-0.004,0.006
					c-0.005,0.011-0.013,0.021-0.021,0.035c-0.007,0.015-0.018,0.028-0.027,0.045c-0.011,0.015-0.023,0.03-0.035,0.044
					c-0.012,0.017-0.023,0.029-0.032,0.041c-0.014,0.019-0.021,0.027-0.019,0.027c0-0.002,0.005-0.006,0.013-0.014
					c0.008-0.01,0.015-0.019,0.025-0.031c0.008-0.013,0.017-0.023,0.025-0.034c0.009-0.011,0.015-0.019,0.018-0.024
					c0.01-0.013,0.019-0.027,0.029-0.044c0.01-0.016,0.018-0.028,0.024-0.043c0.003-0.002,0.004-0.003,0.004-0.008
					c0.002-0.001,0.003-0.003,0.004-0.005C-953.832,9.063-953.831,9.06-953.831,9.058L-953.831,9.058z M-953.837,9.032
					c0,0,0,0-0.004,0.004c0,0.002-0.003,0.005-0.004,0.01c-0.005,0.011-0.015,0.023-0.023,0.038
					c-0.01,0.016-0.022,0.032-0.036,0.053c-0.013,0.019-0.027,0.038-0.041,0.057c-0.015,0.023-0.031,0.041-0.044,0.057
					c-0.01,0.014-0.017,0.022-0.023,0.03c-0.005,0.008-0.01,0.013-0.011,0.016l0.002-0.001c0.002,0,0.002,0,0.004,0
					c0.005-0.006,0.011-0.014,0.02-0.025c0.009-0.009,0.019-0.02,0.027-0.032c0.01-0.012,0.02-0.022,0.031-0.036
					c0.009-0.013,0.019-0.026,0.026-0.037c0.016-0.02,0.03-0.044,0.043-0.064c0.013-0.021,0.023-0.039,0.028-0.055
					C-953.838,9.037-953.837,9.032-953.837,9.032L-953.837,9.032z M-953.98,9.107c-0.003,0.003-0.005,0.009-0.008,0.018
					c-0.003,0.005-0.005,0.013-0.008,0.02c-0.003,0.006-0.005,0.012-0.007,0.02c-0.003,0.006-0.003,0.009-0.003,0.009
					c0,0.001,0.002-0.003,0.008-0.01c0.007-0.013,0.014-0.019,0.023-0.032c0.009-0.012,0.018-0.023,0.025-0.035
					c0.009-0.011,0.014-0.019,0.019-0.027c0.009-0.016,0.019-0.03,0.029-0.047c0.007-0.017,0.015-0.03,0.019-0.041
					c0.005-0.013,0.007-0.02,0.007-0.025c0-0.001-0.001-0.001-0.003,0c-0.002,0-0.007,0.005-0.015,0.013
					c-0.013,0.013-0.028,0.033-0.045,0.059C-953.955,9.056-953.971,9.081-953.98,9.107L-953.98,9.107z M-953.992,9.181
					c-0.007,0.011-0.016,0.021-0.021,0.027c-0.004,0.009-0.008,0.013-0.008,0.014c0,0.001,0.004-0.004,0.012-0.014
					c0.006-0.011,0.016-0.022,0.027-0.035c0.012-0.017,0.022-0.028,0.033-0.044c0.012-0.016,0.02-0.029,0.027-0.037
					c0.005-0.009,0.008-0.016,0.015-0.026c0.006-0.008,0.01-0.016,0.013-0.022c0.005-0.007,0.008-0.012,0.01-0.017
					c0.001-0.005,0.003-0.008,0.001-0.008c0-0.001-0.001,0.003-0.004,0.008c-0.006,0.006-0.011,0.016-0.017,0.026
					c-0.013,0.021-0.027,0.04-0.039,0.058C-953.955,9.133-953.973,9.156-953.992,9.181L-953.992,9.181z M-954.032,9.262
					c-0.001,0.002-0.001,0.003-0.001,0.006c0,0.003-0.001,0.003-0.002,0.003c0,0,0.005-0.006,0.014-0.017
					c0.009-0.014,0.021-0.027,0.033-0.044c0.012-0.015,0.025-0.032,0.039-0.049c0.012-0.016,0.02-0.029,0.027-0.04
					c0.015-0.02,0.028-0.037,0.036-0.053c0.008-0.015,0.016-0.029,0.02-0.043c0.002,0,0.002-0.004,0.003-0.007
					c0,0,0-0.003,0.001-0.006c0,0,0.001-0.003,0.001-0.004c0-0.001-0.001,0-0.002,0.004c-0.003,0.006-0.005,0.006-0.007,0.013
					c-0.005,0.007-0.011,0.019-0.02,0.033c-0.008,0.016-0.019,0.03-0.031,0.048c-0.011,0.017-0.026,0.035-0.039,0.055
					c-0.014,0.02-0.028,0.037-0.043,0.057c-0.006,0.009-0.014,0.019-0.018,0.026C-954.028,9.254-954.031,9.26-954.032,9.262
					L-954.032,9.262z"/>
				<path d="M-953.304,9.146c0.007,0.004,0.012,0.005,0.017,0.014c0.004,0.006,0.004,0.015,0,0.023c0,0-0.001,0.006-0.005,0.016
					c-0.003,0.01-0.009,0.022-0.015,0.039c-0.006,0.015-0.014,0.032-0.023,0.052c-0.009,0.02-0.019,0.041-0.03,0.06
					c-0.03,0.054-0.06,0.096-0.09,0.123c-0.031,0.032-0.061,0.049-0.091,0.05c-0.044-0.001-0.081-0.014-0.109-0.035
					c-0.029-0.02-0.052-0.049-0.067-0.083c-0.015-0.033-0.024-0.07-0.026-0.11c-0.004-0.04-0.001-0.082,0.004-0.122
					c0.007-0.041,0.018-0.078,0.034-0.114c0.015-0.038,0.033-0.068,0.055-0.093c0.021-0.027,0.047-0.048,0.076-0.063
					c0.029-0.017,0.062-0.018,0.099-0.009c0.015,0.003,0.026,0.013,0.036,0.021c0.008,0.012,0.012,0.023,0.012,0.037
					c0,0.018-0.006,0.04-0.018,0.062c-0.012,0.025-0.029,0.051-0.049,0.073c-0.018,0.02-0.03,0.035-0.042,0.047
					c-0.012,0.013-0.022,0.018-0.029,0.028c-0.007,0.007-0.012,0.014-0.016,0.017c-0.002,0.005-0.004,0.012-0.004,0.019
					c0,0.021-0.001,0.04-0.001,0.061c-0.001,0.019-0.001,0.041-0.001,0.058c0,0.021,0.001,0.037,0.002,0.056
					c0,0.019,0.002,0.031,0.004,0.043c0.004,0.009,0.009,0.019,0.013,0.03c0.006,0.011,0.01,0.017,0.014,0.021
					c0.011,0.003,0.024,0,0.039-0.012c0.015-0.013,0.029-0.026,0.043-0.045c0.015-0.017,0.029-0.034,0.039-0.051
					c0.012-0.017,0.019-0.028,0.021-0.035c0.011-0.022,0.021-0.041,0.029-0.06c0.01-0.018,0.016-0.035,0.022-0.047
					c0.006-0.017,0.011-0.028,0.015-0.039c0.002-0.009,0.004-0.013,0.004-0.013c0.004-0.009,0.008-0.014,0.015-0.018
					C-953.32,9.145-953.312,9.145-953.304,9.146L-953.304,9.146z M-953.587,9.077c-0.003,0.009-0.007,0.017-0.008,0.023
					c-0.001,0.007-0.003,0.01-0.003,0.011c0.004-0.003,0.013-0.013,0.027-0.027c0.013-0.016,0.028-0.033,0.041-0.052
					c0.013-0.017,0.024-0.036,0.031-0.055c0.008-0.016,0.006-0.027-0.002-0.039c-0.002-0.002-0.004-0.002-0.005-0.002
					c-0.001,0-0.004,0.004-0.012,0.01c-0.012,0.015-0.025,0.035-0.038,0.059C-953.569,9.025-953.578,9.051-953.587,9.077
					L-953.587,9.077z M-953.648,9.1c-0.001,0.006-0.003,0.011-0.004,0.02c-0.001,0.006-0.004,0.014-0.006,0.021
					c0,0.01-0.003,0.015-0.003,0.02c-0.001,0.005-0.001,0.009-0.001,0.01c0.003,0.004,0.01-0.007,0.018-0.034
					c0.002-0.009,0.005-0.02,0.008-0.028c0.003-0.01,0.007-0.02,0.01-0.031c0.004-0.009,0.007-0.017,0.009-0.026
					c0.003-0.008,0.005-0.014,0.007-0.019c0.006-0.014,0.003-0.014-0.007,0.006C-953.63,9.058-953.64,9.079-953.648,9.1
					L-953.648,9.1z M-953.714,9.178c-0.002,0.018-0.002,0.031-0.002,0.043c0,0.013,0.001,0.018,0.003,0.017
					c0-0.002,0.001-0.009,0.003-0.019c0-0.013,0-0.022,0.002-0.029c0.005-0.023,0.013-0.05,0.023-0.078
					c0.009-0.029,0.018-0.052,0.027-0.072c0.006-0.013,0.005-0.011-0.006,0.006C-953.692,9.094-953.708,9.137-953.714,9.178
					L-953.714,9.178z M-952.825,8.905c0.007,0.004,0.013,0.008,0.015,0.014c0,0.005,0,0.01-0.006,0.012
					c-0.003,0.002-0.008,0.002-0.013,0.003c-0.006,0.003-0.019,0.003-0.043,0c-0.011,0-0.028,0.003-0.05,0.003
					c-0.023,0-0.044,0-0.065,0s-0.04,0.001-0.055,0.002c-0.018,0.002-0.024,0.002-0.027,0.002c-0.007,0.016-0.016,0.031-0.024,0.045
					c-0.007,0.014-0.017,0.027-0.026,0.042c-0.009,0.016-0.021,0.031-0.032,0.05c-0.011,0.017-0.024,0.034-0.039,0.057
					c-0.009,0.06-0.017,0.111-0.023,0.158c-0.005,0.046-0.009,0.086-0.013,0.123c-0.002,0.035-0.003,0.067-0.003,0.095
					c0,0.028,0.001,0.052,0.005,0.075l0.007,0.038c0.005-0.002,0.01-0.007,0.017-0.018c0.006-0.008,0.013-0.021,0.021-0.04
					c0.012-0.021,0.021-0.045,0.031-0.074c0.009-0.027,0.019-0.058,0.029-0.089c0.013-0.038,0.025-0.076,0.038-0.114
					c0.015-0.038,0.026-0.078,0.039-0.12c0-0.002,0-0.003,0-0.004c0.003-0.004,0.005-0.008,0.007-0.009
					c0.004-0.004,0.008-0.005,0.014-0.009c0.005-0.001,0.011-0.001,0.016-0.001c0.012,0.002,0.018,0.006,0.019,0.012
					c0.001,0.008,0.001,0.017,0,0.023c-0.009,0.029-0.02,0.063-0.032,0.1c-0.009,0.036-0.02,0.072-0.031,0.107
					c-0.011,0.036-0.022,0.073-0.035,0.108c-0.012,0.034-0.025,0.065-0.038,0.097c-0.017,0.035-0.032,0.058-0.047,0.071
					c-0.015,0.013-0.028,0.022-0.039,0.023c-0.026,0.006-0.049,0.004-0.065-0.007c-0.017-0.012-0.032-0.026-0.044-0.048
					c-0.01-0.022-0.02-0.044-0.026-0.071c-0.005-0.028-0.009-0.055-0.011-0.084c-0.004-0.028-0.005-0.056-0.006-0.081
					c-0.002-0.026,0-0.048,0.001-0.063c0.001-0.021,0.002-0.043,0.005-0.069c0.003-0.025,0.004-0.055,0.008-0.086
					c0.002-0.03,0.007-0.063,0.012-0.097c0.005-0.033,0.012-0.065,0.021-0.1c0.001-0.007,0.002-0.01,0.002-0.01
					c-0.006,0-0.016,0-0.029,0c-0.013,0-0.027,0-0.042,0c-0.015-0.003-0.028-0.004-0.039-0.01c-0.012-0.006-0.018-0.011-0.02-0.022
					c0.001-0.008,0.008-0.016,0.022-0.02c0.013-0.007,0.029-0.011,0.047-0.015c0.019-0.003,0.037-0.007,0.054-0.008
					c0.019-0.002,0.031-0.004,0.039-0.005c0.008-0.018,0.016-0.03,0.023-0.048c0.008-0.014,0.015-0.027,0.021-0.038
					c0.016-0.026,0.034-0.047,0.055-0.063c0.02-0.016,0.039-0.026,0.059-0.03c0.019-0.005,0.038-0.005,0.054,0
					c0.017,0.005,0.032,0.016,0.04,0.028c0.01,0.013,0.016,0.033,0.016,0.056c0,0.023-0.005,0.052-0.018,0.083h0.018h0.027
					c0.044,0.002,0.078,0.004,0.102,0.007C-952.859,8.89-952.839,8.897-952.825,8.905L-952.825,8.905z M-953.23,8.887
					c0.003-0.007,0.008-0.017,0.011-0.025c0.003-0.01,0.008-0.019,0.013-0.026c0.003-0.011,0.007-0.016,0.01-0.024
					c0.001-0.005,0.005-0.011,0.006-0.014c-0.005,0.007-0.014,0.019-0.026,0.036c-0.012,0.019-0.02,0.036-0.025,0.055
					C-953.239,8.887-953.234,8.887-953.23,8.887L-953.23,8.887z M-953.187,8.885c0.006-0.015,0.012-0.031,0.019-0.045
					c0.007-0.019,0.015-0.033,0.018-0.048c-0.001-0.002-0.005,0.002-0.011,0.008c-0.004,0.008-0.008,0.018-0.013,0.025
					c-0.003,0.007-0.007,0.017-0.011,0.027c-0.004,0.01-0.008,0.021-0.011,0.032H-953.187z M-953.18,9.038
					c0.006-0.011,0.013-0.02,0.018-0.029c0.007-0.01,0.013-0.018,0.019-0.027c0.004-0.009,0.008-0.015,0.012-0.021
					c0.005-0.006,0.007-0.01,0.007-0.01s-0.002,0-0.007-0.004c-0.003,0-0.006,0-0.011,0c-0.005,0-0.01,0-0.013,0.004
					c-0.005,0-0.007,0-0.008,0.001c-0.002,0.005-0.004,0.014-0.005,0.023c-0.002,0.007-0.004,0.018-0.006,0.027
					c0,0.008-0.002,0.017-0.003,0.023C-953.179,9.032-953.179,9.037-953.18,9.038L-953.18,9.038z M-953.083,8.881
					c0.01-0.029,0.018-0.056,0.02-0.077c0.001-0.022-0.002-0.038-0.01-0.049c-0.002-0.005-0.005-0.006-0.008-0.006
					c-0.005,0-0.012,0.005-0.018,0.017c-0.008,0.01-0.014,0.024-0.021,0.038c-0.008,0.014-0.013,0.03-0.019,0.045
					c-0.004,0.014-0.008,0.025-0.01,0.034c0.01,0,0.021,0,0.031-0.002C-953.108,8.881-953.098,8.881-953.083,8.881L-953.083,8.881z
					 M-952.222,9.143c0.007,0.002,0.013,0.007,0.017,0.013c0.005,0.008,0.006,0.015,0.004,0.022
					c-0.012,0.046-0.041,0.086-0.088,0.118c-0.018,0.013-0.036,0.021-0.059,0.03c0.004,0.023,0.008,0.048,0.012,0.073
					c0.001,0.027,0.004,0.055,0.006,0.086c0.003,0.045,0.003,0.09,0,0.129c-0.003,0.036-0.009,0.069-0.018,0.095
					c-0.008,0.022-0.018,0.04-0.029,0.057c-0.013,0.016-0.026,0.028-0.039,0.035c-0.015,0.007-0.031,0.01-0.048,0.007
					c-0.017-0.002-0.032-0.011-0.049-0.028c-0.021-0.021-0.04-0.053-0.057-0.098c-0.017-0.046-0.03-0.102-0.038-0.16
					c-0.006-0.056-0.012-0.118-0.016-0.184c-0.003-0.065-0.003-0.131-0.001-0.194c0.003-0.066,0.009-0.128,0.021-0.188
					c0.01-0.061,0.027-0.113,0.047-0.158c0.007-0.011,0.016-0.024,0.025-0.038c0.008-0.014,0.02-0.026,0.032-0.036
					c0.014-0.01,0.026-0.019,0.042-0.021c0.015-0.002,0.031,0,0.049,0.007c0.01,0.006,0.017,0.015,0.023,0.026
					c0.005,0.011,0.008,0.025,0.01,0.046c0.002,0.02,0,0.043-0.005,0.068c-0.005,0.028-0.011,0.054-0.018,0.081
					c-0.008,0.025-0.018,0.051-0.027,0.075c-0.011,0.023-0.022,0.044-0.034,0.059c0.025,0.039,0.046,0.081,0.064,0.123
					c0.006,0.012,0.01,0.026,0.016,0.039c0.004,0.014,0.01,0.031,0.014,0.044c0.027-0.009,0.05-0.021,0.071-0.042
					c0.019-0.02,0.034-0.04,0.039-0.063c0.002-0.009,0.006-0.014,0.014-0.019C-952.238,9.141-952.23,9.141-952.222,9.143
					L-952.222,9.143z M-952.487,9.238c0.008,0.011,0.017,0.02,0.025,0.025c0.009,0.007,0.02,0.013,0.033,0.014
					c-0.013-0.046-0.028-0.088-0.047-0.126c-0.003,0-0.004-0.004-0.006-0.006c0-0.004-0.001-0.004-0.002-0.007
					c0,0-0.003,0.013-0.003,0.031C-952.487,9.189-952.487,9.214-952.487,9.238L-952.487,9.238z M-952.468,8.985
					c0.015-0.034,0.026-0.066,0.034-0.101c0.008-0.028,0.014-0.057,0.018-0.078c0-0.002,0-0.009,0-0.015
					c0.001-0.009,0.001-0.017,0-0.024c0-0.008-0.002-0.015-0.004-0.022c-0.002-0.009-0.003-0.01-0.006-0.01
					c-0.006,0-0.011,0.018-0.02,0.057c0,0.006-0.002,0.016-0.003,0.032c-0.003,0.017-0.004,0.035-0.007,0.054
					c-0.003,0.017-0.005,0.036-0.006,0.055c-0.002,0.017-0.004,0.031-0.005,0.04L-952.468,8.985z M-952.537,8.857
					c-0.005,0.017-0.006,0.027-0.007,0.027c0,0.004,0.001,0.004,0.002,0c0.004-0.004,0.005-0.014,0.009-0.023
					c0.004-0.014,0.008-0.025,0.011-0.038c0.005-0.013,0.009-0.024,0.014-0.034c0.003-0.014,0.006-0.02,0.01-0.024l0.013-0.025
					c-0.005,0-0.01,0.006-0.017,0.015c-0.006,0.013-0.01,0.025-0.016,0.039c-0.006,0.014-0.01,0.026-0.014,0.04
					C-952.534,8.845-952.537,8.852-952.537,8.857L-952.537,8.857z M-952.4,9.597c0.003-0.014,0.003-0.032,0.003-0.054
					c0-0.022,0-0.042,0-0.066c-0.003-0.024-0.003-0.047-0.006-0.071c-0.003-0.024-0.004-0.046-0.007-0.064V9.338
					c-0.013-0.001-0.025-0.003-0.038-0.005c-0.013-0.002-0.024-0.007-0.036-0.016c0.002,0.066,0.004,0.128,0.009,0.191
					c0.006,0.058,0.013,0.116,0.023,0.17c0.005,0.03,0.009,0.046,0.01,0.049c0.003,0.003,0.005,0,0.009-0.009
					c0.007-0.014,0.014-0.031,0.02-0.054C-952.407,9.645-952.402,9.622-952.4,9.597L-952.4,9.597z M-951.825,9.146
					c0.006,0.004,0.012,0.005,0.016,0.014c0.003,0.006,0.004,0.015,0.002,0.023c0,0-0.002,0.006-0.006,0.016
					c-0.002,0.01-0.009,0.022-0.015,0.039c-0.006,0.015-0.014,0.032-0.022,0.052c-0.01,0.02-0.021,0.041-0.032,0.06
					c-0.03,0.054-0.06,0.096-0.089,0.123c-0.029,0.032-0.06,0.049-0.092,0.05c-0.044-0.001-0.082-0.014-0.109-0.035
					c-0.028-0.02-0.051-0.049-0.066-0.083c-0.017-0.033-0.025-0.07-0.029-0.11c-0.003-0.04,0-0.082,0.006-0.122
					c0.006-0.041,0.017-0.078,0.033-0.114c0.015-0.038,0.034-0.068,0.054-0.093c0.022-0.027,0.048-0.048,0.078-0.063
					c0.027-0.017,0.062-0.018,0.099-0.009c0.016,0.003,0.026,0.013,0.036,0.021c0.008,0.012,0.012,0.023,0.012,0.037
					c0,0.018-0.005,0.04-0.018,0.062c-0.013,0.025-0.028,0.051-0.049,0.073c-0.016,0.02-0.03,0.035-0.042,0.047
					c-0.011,0.013-0.021,0.018-0.029,0.028c-0.006,0.007-0.011,0.014-0.015,0.017c-0.004,0.005-0.006,0.012-0.006,0.019
					c0,0.021,0,0.04,0,0.061c-0.001,0.019-0.001,0.041-0.001,0.058c0,0.021,0,0.037,0.001,0.056
					c0.001,0.019,0.003,0.031,0.007,0.043c0.002,0.009,0.007,0.019,0.012,0.03c0.004,0.011,0.01,0.017,0.014,0.021
					c0.01,0.003,0.023,0,0.038-0.012c0.015-0.013,0.03-0.026,0.044-0.045c0.015-0.017,0.026-0.034,0.039-0.051
					c0.009-0.017,0.018-0.028,0.021-0.035c0.011-0.022,0.021-0.041,0.029-0.06c0.01-0.018,0.018-0.035,0.022-0.047
					c0.007-0.017,0.011-0.028,0.015-0.039c0.003-0.009,0.006-0.013,0.006-0.013c0.001-0.009,0.006-0.014,0.014-0.018
					C-951.842,9.145-951.834,9.145-951.825,9.146L-951.825,9.146z M-952.108,9.077c-0.003,0.009-0.006,0.017-0.006,0.023
					c-0.003,0.007-0.003,0.01-0.003,0.011c0.003-0.003,0.012-0.013,0.025-0.027c0.014-0.016,0.028-0.033,0.042-0.052
					c0.014-0.017,0.023-0.036,0.031-0.055c0.006-0.016,0.005-0.027-0.003-0.039c-0.001-0.002-0.002-0.002-0.004-0.002
					c-0.002,0-0.005,0.004-0.012,0.01c-0.014,0.015-0.025,0.035-0.038,0.059C-952.089,9.025-952.099,9.051-952.108,9.077
					L-952.108,9.077z M-952.168,9.1c-0.002,0.006-0.004,0.011-0.006,0.02c-0.002,0.006-0.002,0.014-0.004,0.021
					c-0.001,0.01-0.002,0.015-0.005,0.02c0,0.005,0,0.009,0,0.01c0.004,0.004,0.009-0.007,0.018-0.034
					c0.003-0.009,0.005-0.02,0.009-0.028c0.002-0.01,0.005-0.02,0.009-0.031c0.003-0.009,0.007-0.017,0.01-0.026
					c0.002-0.008,0.004-0.014,0.007-0.019c0.005-0.014,0.003-0.014-0.007,0.006C-952.152,9.058-952.161,9.079-952.168,9.1
					L-952.168,9.1z M-952.233,9.178c-0.003,0.018-0.003,0.031-0.003,0.043c0,0.013,0,0.018,0.003,0.017
					c0-0.002,0.003-0.009,0.003-0.019c0-0.013,0.001-0.022,0.001-0.029c0.007-0.023,0.014-0.05,0.023-0.078
					c0.011-0.029,0.018-0.052,0.028-0.072c0.007-0.013,0.003-0.011-0.008,0.006C-952.213,9.094-952.229,9.137-952.233,9.178
					L-952.233,9.178z M-951.284,9.143c0.007,0.002,0.014,0.007,0.018,0.012c0.005,0.009,0.007,0.015,0.005,0.023
					c-0.007,0.039-0.021,0.075-0.044,0.111c-0.01,0.014-0.023,0.031-0.039,0.048c-0.015,0.016-0.036,0.028-0.059,0.038
					c-0.032,0.013-0.064,0.013-0.095,0.007l-0.013,0.028l0,0c-0.008,0.023-0.021,0.044-0.035,0.067
					c-0.015,0.022-0.028,0.039-0.038,0.047c-0.016,0.014-0.033,0.022-0.052,0.028c-0.018,0.001-0.038,0.003-0.057,0
					c-0.022-0.005-0.04-0.014-0.056-0.024c-0.017-0.012-0.029-0.025-0.04-0.043c-0.012-0.019-0.021-0.036-0.029-0.058
					c-0.006-0.021-0.012-0.041-0.016-0.064c-0.002-0.012-0.005-0.026-0.007-0.044c-0.003-0.019-0.005-0.038-0.007-0.061
					c-0.002-0.021-0.005-0.043-0.009-0.066c-0.003-0.023-0.004-0.043-0.005-0.065c-0.005-0.044-0.008-0.077-0.005-0.096
					c0-0.017,0.005-0.032,0.015-0.04c0.003-0.005,0.007-0.007,0.01-0.011c0.005-0.004,0.007-0.004,0.007,0
					c0.001,0,0,0.005-0.002,0.011c-0.002,0.008-0.002,0.014-0.002,0.014s0.002-0.006,0.005-0.014
					c0.004-0.011,0.005-0.018,0.01-0.018c0.003,0,0.004,0.001,0.004,0.007c0,0,0,0.004,0,0.007c0,0.004,0,0.008,0,0.011l0.003,0.01
					l0-0.007c0.003-0.01,0.006-0.021,0.009-0.025c0.004-0.005,0.008-0.008,0.01-0.004c0.001,0.002,0.004,0.002,0.01,0
					c0.007-0.001,0.01,0.002,0.011,0.005c0.001-0.003,0.007-0.003,0.017,0.004c0.005,0.004,0.01,0.008,0.016,0.014
					c0.005,0.002,0.008,0.01,0.012,0.015c0.004,0.009,0.007,0.018,0.01,0.027c0.004,0.011,0.009,0.024,0.013,0.038
					c0.005,0.017,0.01,0.034,0.014,0.059c0.005,0.024,0.011,0.062,0.018,0.107c0.005,0.041,0.011,0.075,0.018,0.101
					c0.003,0.027,0.007,0.049,0.01,0.067c0.003,0.018,0.005,0.031,0.008,0.042c0.003,0.012,0.005,0.021,0.008,0.031
					c0.018-0.019,0.031-0.037,0.042-0.055c0.011-0.018,0.021-0.037,0.032-0.061c-0.018-0.015-0.032-0.032-0.043-0.054
					c-0.011-0.02-0.021-0.043-0.026-0.073c-0.005-0.017-0.007-0.038-0.011-0.063c-0.003-0.023-0.004-0.048-0.003-0.073
					c0-0.025,0.005-0.051,0.009-0.072c0.007-0.024,0.016-0.044,0.03-0.06c0.008-0.011,0.018-0.021,0.031-0.026
					c0.013-0.006,0.027-0.01,0.04-0.014c0.015,0,0.028,0,0.042,0.004c0.014,0.004,0.025,0.014,0.038,0.021
					c0.01,0.011,0.018,0.02,0.023,0.034c0.006,0.014,0.008,0.026,0.01,0.041c0,0.017,0,0.03,0,0.047
					c-0.002,0.014-0.002,0.029-0.004,0.041c-0.003,0.034-0.011,0.064-0.019,0.097c-0.01,0.031-0.021,0.067-0.029,0.108l0,0
					c0.007,0.001,0.016,0.004,0.023,0.001c0.009-0.001,0.017-0.001,0.024-0.004c0.015-0.01,0.03-0.017,0.042-0.031
					c0.011-0.012,0.022-0.024,0.028-0.034c0.019-0.031,0.032-0.061,0.037-0.092c0.001-0.009,0.006-0.015,0.013-0.019
					C-951.3,9.141-951.292,9.141-951.284,9.143L-951.284,9.143z M-951.448,9.106c-0.005,0.032-0.015,0.082-0.03,0.144
					c-0.001,0.008-0.004,0.014-0.004,0.02c-0.002,0.007-0.003,0.012-0.006,0.018c0,0.004-0.001,0.011-0.003,0.015
					c0,0.003,0,0.003,0.002,0.003c0.001,0,0.001-0.005,0.004-0.011c0.002-0.007,0.006-0.017,0.008-0.027
					c0.004-0.009,0.007-0.019,0.01-0.03c0.002-0.014,0.005-0.021,0.008-0.03c0.003-0.019,0.007-0.036,0.01-0.056
					c0.003-0.018,0.005-0.031,0.005-0.044c0.003-0.014,0.003-0.021,0.001-0.021C-951.445,9.085-951.447,9.093-951.448,9.106
					L-951.448,9.106z M-951.466,9.08c-0.001-0.003-0.001-0.003-0.001-0.003c0,0.007,0,0.017-0.001,0.029
					c-0.002,0.014-0.005,0.027-0.009,0.045c-0.002,0.015-0.006,0.031-0.01,0.051c-0.003,0.017-0.007,0.032-0.012,0.044
					c-0.006,0.02-0.006,0.031-0.006,0.034c0.002,0.001,0.008-0.015,0.016-0.045c0.007-0.026,0.012-0.049,0.016-0.069
					c0.003-0.019,0.006-0.036,0.007-0.055c0-0.005,0.001-0.012,0.001-0.018C-951.465,9.086-951.465,9.084-951.466,9.08
					L-951.466,9.08z M-951.524,8.981c-0.007,0.014-0.012,0.026-0.013,0.044c-0.004,0.015-0.004,0.038-0.003,0.068
					c0.003,0.052,0.008,0.093,0.017,0.127c0.004,0.014,0.006,0.018,0.006,0.018c0.002-0.004,0.005-0.018,0.011-0.045
					c0.011-0.046,0.017-0.086,0.018-0.119c0-0.036-0.003-0.064-0.015-0.082c-0.002-0.004-0.003-0.011-0.008-0.015
					C-951.515,8.974-951.519,8.974-951.524,8.981L-951.524,8.981z M-950.884,9.146c0.008,0.004,0.012,0.005,0.016,0.014
					c0.004,0.006,0.005,0.015,0.003,0.023c0,0-0.003,0.006-0.006,0.016c-0.004,0.01-0.007,0.022-0.014,0.039
					c-0.007,0.015-0.015,0.032-0.024,0.052c-0.009,0.02-0.019,0.041-0.029,0.06c-0.031,0.054-0.061,0.096-0.092,0.123
					c-0.029,0.032-0.058,0.049-0.09,0.05c-0.045-0.001-0.08-0.014-0.11-0.035c-0.027-0.02-0.05-0.049-0.066-0.083
					c-0.015-0.033-0.025-0.07-0.027-0.11c-0.003-0.04-0.001-0.082,0.004-0.122c0.008-0.041,0.018-0.078,0.034-0.114
					c0.015-0.038,0.033-0.068,0.054-0.093c0.023-0.027,0.049-0.048,0.079-0.063c0.029-0.017,0.06-0.018,0.098-0.009
					c0.015,0.003,0.028,0.013,0.036,0.021c0.008,0.012,0.012,0.023,0.012,0.037c0,0.018-0.006,0.04-0.017,0.062
					c-0.013,0.025-0.029,0.051-0.049,0.073c-0.017,0.02-0.03,0.035-0.041,0.047c-0.012,0.013-0.022,0.018-0.028,0.028
					c-0.007,0.007-0.013,0.014-0.017,0.017c-0.003,0.005-0.005,0.012-0.005,0.019c0,0.021,0,0.04-0.001,0.061
					c0,0.019,0,0.041,0,0.058c0,0.021,0,0.037,0.001,0.056c0,0.019,0.003,0.031,0.006,0.043c0.003,0.009,0.007,0.019,0.012,0.03
					c0.005,0.011,0.01,0.017,0.014,0.021c0.012,0.003,0.024,0,0.039-0.012c0.014-0.013,0.03-0.026,0.043-0.045
					c0.015-0.017,0.027-0.034,0.038-0.051c0.012-0.017,0.02-0.028,0.024-0.035c0.011-0.022,0.02-0.041,0.029-0.06
					c0.008-0.018,0.016-0.035,0.023-0.047c0.004-0.017,0.01-0.028,0.013-0.039c0.004-0.009,0.005-0.013,0.005-0.013
					c0.003-0.009,0.008-0.014,0.016-0.018C-950.9,9.145-950.892,9.145-950.884,9.146L-950.884,9.146z M-951.167,9.077
					c-0.003,0.009-0.005,0.017-0.007,0.023c-0.002,0.007-0.003,0.01-0.003,0.011c0.005-0.003,0.013-0.013,0.026-0.027
					c0.015-0.016,0.028-0.033,0.041-0.052c0.014-0.017,0.023-0.036,0.031-0.055c0.008-0.016,0.008-0.027-0.003-0.039
					c-0.002-0.002-0.002-0.002-0.004-0.002c0,0-0.003,0.004-0.012,0.01c-0.012,0.015-0.023,0.035-0.037,0.059
					C-951.148,9.025-951.158,9.051-951.167,9.077L-951.167,9.077z M-951.227,9.1c-0.003,0.006-0.005,0.011-0.006,0.02
					c-0.001,0.006-0.003,0.014-0.003,0.021c-0.003,0.01-0.003,0.015-0.004,0.02c-0.002,0.005-0.002,0.009-0.002,0.01
					c0.005,0.004,0.009-0.007,0.018-0.034c0.004-0.009,0.007-0.02,0.009-0.028c0.003-0.01,0.006-0.02,0.01-0.031
					c0.002-0.009,0.006-0.017,0.008-0.026c0.003-0.008,0.003-0.014,0.005-0.019c0.006-0.014,0.004-0.014-0.005,0.006
					C-951.21,9.058-951.218,9.079-951.227,9.1L-951.227,9.1z M-951.292,9.178c-0.002,0.018-0.003,0.031-0.003,0.043
					c0.001,0.013,0.001,0.018,0.003,0.017c0.001-0.002,0.002-0.009,0.002-0.019c0.001-0.013,0.002-0.022,0.004-0.029
					c0.005-0.023,0.012-0.05,0.022-0.078c0.01-0.029,0.018-0.052,0.028-0.072c0.006-0.013,0.003-0.011-0.007,0.006
					C-951.27,9.094-951.287,9.137-951.292,9.178L-951.292,9.178z"/>
				<path d="M-950.513,9.151c0.007,0,0.013,0.005,0.017,0.014c0.004,0.006,0.006,0.016,0.002,0.022
					c-0.004,0.008-0.01,0.023-0.019,0.047c-0.008,0.024-0.019,0.051-0.029,0.081c-0.012,0.031-0.025,0.063-0.04,0.095
					c-0.014,0.035-0.029,0.065-0.045,0.094c-0.017,0.026-0.035,0.052-0.051,0.071c-0.02,0.021-0.041,0.03-0.062,0.034
					c-0.037,0.002-0.066-0.003-0.088-0.017c-0.022-0.014-0.038-0.035-0.049-0.059c-0.009-0.026-0.015-0.056-0.015-0.089
					c0-0.031,0.004-0.064,0.011-0.099c0.007-0.034,0.016-0.066,0.027-0.098c0.012-0.031,0.026-0.06,0.039-0.083
					c0.003-0.009,0.007-0.015,0.01-0.021c0.003-0.009,0.003-0.012,0.003-0.012c-0.001,0.008-0.006,0.018-0.013,0.026
					c-0.008,0.01-0.018,0.018-0.032,0.025c-0.012,0.007-0.027,0.012-0.042,0.013c-0.014,0.004-0.03-0.001-0.045-0.009
					c-0.023-0.009-0.039-0.028-0.046-0.056c-0.009-0.027-0.013-0.057-0.01-0.086c0.003-0.029,0.009-0.057,0.018-0.083
					c0.01-0.024,0.022-0.041,0.036-0.049c0.01-0.005,0.021-0.009,0.033-0.01c0.012-0.001,0.024,0,0.034,0.003
					c0.01,0.002,0.021,0.006,0.029,0.013c0.01,0.007,0.017,0.015,0.02,0.022c0.006,0.015,0.008,0.033,0.006,0.056
					c0,0.023-0.005,0.045-0.014,0.067c0.013-0.008,0.023-0.018,0.036-0.029c0.013-0.012,0.024-0.019,0.032-0.019
					c0.044-0.01,0.073-0.006,0.086,0.009c0.014,0.014,0.016,0.047,0.001,0.093c-0.006,0.027-0.017,0.058-0.028,0.094
					c-0.009,0.035-0.019,0.071-0.025,0.107c-0.008,0.036-0.014,0.073-0.016,0.108c-0.003,0.036,0,0.067,0.008,0.099
					c0.006-0.007,0.013-0.012,0.02-0.019c0.007-0.007,0.016-0.017,0.023-0.027c0.008-0.011,0.016-0.023,0.025-0.041
					c0.009-0.015,0.019-0.035,0.032-0.059c0.012-0.025,0.023-0.051,0.034-0.075c0.01-0.026,0.018-0.049,0.028-0.068
					c0.007-0.021,0.014-0.036,0.017-0.05c0.003-0.014,0.007-0.02,0.007-0.02c0.002-0.007,0.007-0.012,0.014-0.017
					C-950.528,9.15-950.521,9.147-950.513,9.151L-950.513,9.151z M-950.902,9.117c0.004-0.031,0.009-0.061,0.015-0.09
					c0.005-0.031,0.003-0.056-0.006-0.081c-0.005,0.01-0.008,0.019-0.01,0.025c-0.002,0.006-0.006,0.01-0.007,0.017
					c-0.002,0.007-0.005,0.017-0.007,0.03c-0.002,0.011-0.002,0.024-0.002,0.04c0,0.011,0.002,0.025,0.002,0.038
					C-950.913,9.108-950.909,9.115-950.902,9.117L-950.902,9.117z M-950.708,9.104c-0.002-0.005-0.006-0.003-0.01,0.007
					c-0.006,0.014-0.012,0.027-0.017,0.044c-0.006,0.016-0.011,0.031-0.018,0.047c-0.003,0.016-0.006,0.024-0.008,0.028
					c-0.01,0.024-0.02,0.047-0.028,0.065c-0.007,0.017-0.013,0.035-0.018,0.052c-0.003,0.012-0.006,0.025-0.008,0.037
					c-0.002,0.013-0.002,0.026-0.002,0.04v0.024l0.002-0.019c0.006-0.037,0.016-0.077,0.03-0.121
					c0.014-0.045,0.034-0.099,0.063-0.162c0.004-0.01,0.007-0.02,0.011-0.03C-950.709,9.109-950.708,9.104-950.708,9.104
					L-950.708,9.104z M-950.829,9.308c-0.013,0.028-0.018,0.05-0.02,0.063c-0.002,0.016-0.003,0.031-0.006,0.046
					c0,0.004,0,0.009,0,0.012c0,0.004,0,0.006,0,0.009v0.01c0.003,0.001,0.003,0.001,0.004-0.003
					c0.001-0.004,0.003-0.014,0.004-0.031c0.005-0.03,0.013-0.067,0.026-0.114c0.013-0.045,0.03-0.09,0.051-0.135
					c0.003-0.008,0.006-0.014,0.008-0.02c0.003-0.008,0.005-0.013,0.007-0.017c0.002-0.007,0.005-0.012,0.008-0.017
					c-0.001,0-0.007,0.009-0.013,0.026c-0.007,0.018-0.016,0.037-0.025,0.058c-0.01,0.022-0.018,0.043-0.027,0.066
					C-950.82,9.282-950.826,9.3-950.829,9.308L-950.829,9.308z"/>
			</g>
			<g>
				<path style="fill-rule:evenodd;clip-rule:evenodd;" d="M-960.896,9.995c0,0,0.139,0.013,0.249-0.074
					c0.111-0.086,0.104-0.074,0.212-0.098c0.107-0.024,0.235-0.117,0.259-0.18c0.024-0.063,0.043-0.074,0.043-0.074
					s-0.01-0.044,0.033-0.056c0.042-0.009,0.072-0.053,0.104-0.078c0.031-0.024,0.001-0.126,0.081-0.243
					c0.08-0.118,0.174-0.175,0.183-0.191c0.009-0.017,0.008-0.044,0.036-0.048c0.027-0.003,0.035,0.058-0.002,0.089
					c-0.036,0.03-0.168,0.123-0.201,0.227c-0.031,0.103,0.002,0.155-0.066,0.218c-0.067,0.063-0.097,0.063-0.107,0.1
					c-0.01,0.034,0.129,0.215,0.141,0.223c0.012,0.008,0.194-0.142,0.192-0.239c-0.001-0.097-0.082-0.154-0.082-0.281
					c0,0,0.076,0.189,0.183,0.281c0.108,0.092,0.341,0.309,0.368,0.355c0,0,0.187,0.017,0.304-0.136
					c0.118-0.152,0.158-0.181,0.158-0.181s-0.035-0.017-0.019-0.065c0.016-0.048,0.044-0.163,0.005-0.203
					c-0.039-0.04-0.179-0.203-0.22-0.286c-0.04-0.082-0.066-0.099-0.066-0.099s0.121,0.069,0.167,0.089
					c0.045,0.018,0.089,0.088,0.121,0.126c0.031,0.036,0.121,0.128,0.143,0.119c0.022-0.008,0.155-0.136,0.193-0.146
					c0,0-0.183-0.205-0.216-0.271c0,0-0.028,0.018-0.033,0.025c0,0,0.003-0.053,0.008-0.061c0.004-0.01-0.074-0.165-0.139-0.19
					c-0.064-0.024-0.086-0.005-0.255,0.033c-0.169,0.04-0.197,0.045-0.204,0.024c-0.007-0.019,0.023-0.014,0.055-0.024
					c0.032-0.01,0.156-0.05,0.233-0.082c0.077-0.033,0.182-0.034,0.241,0.032c0.058,0.065,0.098,0.152,0.098,0.152
					s0.167-0.273,0.478-0.406c0,0-0.074-0.123-0.13-0.195c-0.057-0.074-0.078-0.146-0.005-0.233c0.072-0.086,0.306-0.187,0.36-0.267
					c0.054-0.081,0.048-0.128,0.044-0.151c-0.004-0.023,0.036-0.018,0.039,0.039c0.003,0.056-0.027,0.207-0.216,0.269
					c0,0-0.073,0.15-0.031,0.258c0.042,0.107,0.064,0.157,0.063,0.235c0,0,0.291-0.058,0.217-0.094
					c-0.074-0.036-0.139-0.083-0.075-0.144c0.064-0.064,0.143-0.099,0.205-0.119c0.064-0.021,0.104-0.069,0.136-0.125
					c0.033-0.057,0.067-0.087,0.067-0.087s-0.318,0.187-0.38,0.207c-0.061,0.02-0.027-0.016-0.012-0.025
					c0.016-0.01,0.307-0.215,0.37-0.239c0,0-0.074,0-0.108-0.022c-0.034-0.023-0.167-0.135-0.226-0.178
					c-0.058-0.043-0.131-0.161-0.171-0.316c0,0-0.162,0.149-0.214,0.196c-0.053,0.047-0.182,0.186-0.234,0.237
					c-0.052,0.052-0.42,0.28-0.602,0.351c-0.182,0.071-0.227,0.099-0.25,0.099c-0.023,0-0.039,0.01-0.039,0.01
					s-0.068,0.15-0.167,0.231c-0.099,0.083-0.154,0.114-0.154,0.114s-0.057,0.115-0.096,0.176c0,0,0.093,0.141,0.157,0.189
					c0,0,0.09-0.1,0.097-0.104c0.006-0.002-0.009,0.025,0.001,0.025c0.01-0.002-0.023,0.111-0.01,0.108
					c0.014-0.002,0.044-0.03,0.049-0.032c0.005-0.003,0.003,0.035-0.015,0.051c-0.017,0.016-0.017,0.047,0.009,0.067
					c0.025,0.02,0.035,0.014,0.052-0.032c0.017-0.046,0.067-0.212,0.051-0.264c-0.015-0.053-0.013-0.108-0.002-0.117
					c0.01-0.008,0.031-0.095,0.019-0.137c-0.011-0.045-0.041,0.016-0.041,0.016s-0.027-0.035,0.018-0.082
					c0.044-0.045,0.086,0.077,0.064,0.144c-0.021,0.068-0.035,0.124-0.035,0.124s0.066,0.284-0.074,0.415
					c0,0-0.057,0.058-0.15,0.005c-0.093-0.057-0.36-0.244-0.36-0.244s-0.205,0.102-0.318,0.109c-0.113,0.01-0.071-0.091-0.045-0.136
					c0.026-0.043,0.084-0.074,0.15-0.299c0.065-0.222,0.195-0.345,0.351-0.386c0.157-0.042,0.264,0.035,0.303,0.093
					c0.039,0.056-0.002,0.004-0.002,0.004s-0.184-0.143-0.329-0.047c-0.143,0.097-0.175,0.263-0.123,0.349
					c0.051,0.085,0.374-0.122,0.477-0.238c0.102-0.114,0.072-0.128,0.072-0.128s-0.043-0.088-0.021-0.103
					c0.022-0.013,0.355-0.245,0.424-0.294c0.069-0.051,0.508-0.364,0.566-0.407c0.059-0.043,0.205-0.16,0.232-0.189
					c0.028-0.027,0.059-0.054,0.059-0.054s-0.042-0.096-0.024-0.168c0.018-0.069,0.008-0.086-0.025-0.039
					c-0.033,0.046-0.099,0.22-0.197,0.174c-0.097-0.046-0.104-0.111-0.123-0.185c-0.019-0.071-0.083-0.132-0.196-0.044
					c-0.113,0.089-0.138,0.214-0.294,0.204c-0.156-0.008-0.158-0.118-0.115-0.093c0.042,0.027,0.125,0.114,0.226,0.003
					c0.101-0.112,0.192-0.239,0.332-0.204c0.14,0.036,0.111,0.163,0.141,0.217c0.03,0.052,0.063,0.071,0.104-0.013
					c0.04-0.085,0.139-0.207,0.196-0.17c0.057,0.038,0.019,0.143,0.021,0.211c0.003,0.067,0.024,0.108,0.099,0.123
					c0.074,0.016,0.187,0.05,0.289,0.048c0.103-0.003,0.54-0.147,0.593-0.183c0,0-0.101-0.045-0.159-0.025
					c-0.058,0.021-0.396,0.166-0.631,0.107c0,0,0.316-0.046,0.309-0.171c-0.008-0.125-0.158-0.245-0.438-0.164
					c-0.28,0.082-0.005,0.003-0.005,0.003s0.039-0.113,0.228-0.188c0,0-0.397,0.045-0.566-0.067
					c-0.169-0.114,0.058-0.313,0.185-0.442c0.127-0.133-0.075-0.258-0.5-0.258c0,0-0.046-0.015,0.024-0.026
					c0.07-0.011,0.386,0.001,0.515,0.095c0.129,0.091,0.025,0.228-0.044,0.286c-0.067,0.06-0.279,0.294-0.044,0.34
					c0.235,0.045,0.568-0.061,0.786,0.079c0,0,0.2-0.174,0.223-0.177c0.023-0.004,0.023-0.006,0.023-0.006s-0.019-0.032-0.002-0.062
					c0.017-0.031,0.011-0.139-0.006-0.188c-0.018-0.047,0.01-0.075,0.096-0.111c0.085-0.034,0.117-0.074,0.158-0.1
					c0.042-0.025,0.133-0.024,0.133-0.024s0.023-0.078,0.098-0.112c0.075-0.031,0.107-0.051,0.161-0.103
					c0.054-0.054,0.106-0.022,0.126,0.018c0.02,0.037,0.001,0.005,0.001,0.005s0.03-0.013,0.059,0c0.03,0.01,0.042,0.046,0.039,0.06
					c-0.004,0.011-0.007,0.016-0.007,0.016s0.02,0.011,0.018,0.025c-0.003,0.015-0.025,0.037-0.025,0.037s0.056,0.04,0.085,0.111
					c0.029,0.072,0.034,0.074,0.065,0.082c0.031,0.007,0.148,0.1,0.161,0.148c0.014,0.052-0.028,0.092-0.028,0.092
					s0.013,0.146,0.02,0.192c0.008,0.049,0.113,0.573,0.122,0.59c0.009,0.018,0.017,0.089-0.046,0.142
					c-0.064,0.053-0.239,0.181-0.239,0.181s0.053,0.104,0.007,0.18c0,0-0.002,0.144-0.141,0.184
					c-0.139,0.041-0.304,0.315-0.412,0.367c0,0,0.24,0.381,0.271,0.762c0.031,0.38-0.036,0.393-0.109,0.373
					c-0.073-0.019-0.281-0.19-0.281-0.19s0.198,0.213,0.168,0.241c-0.029,0.027-0.149,0.006-0.37-0.093c0,0,0.172,0.109,0.362,0.188
					c0.19,0.078,0.22,0.188,0.18,0.212c-0.041,0.024-0.056,0.027-0.056,0.027s0.028,0.041,0.031,0.056
					c0.002,0.016,0.004,0.017,0.004,0.017s0.082-0.002,0.1,0.027c0.017,0.028,0.053,0.131,0.071,0.182l-0.036,0.074
					c-0.028-0.06-0.092-0.211-0.092-0.211s-0.045,0.002-0.091-0.02c-0.044-0.02-0.036-0.108-0.087-0.084
					c-0.051,0.024-0.014,0.084-0.074,0.109c-0.06,0.025-0.09,0.075-0.168,0.15c-0.078,0.077-0.271,0.032-0.302,0.02
					c-0.031-0.015-0.294-0.045-0.375,0.214c-0.083,0.259-0.014,0.359,0.022,0.444c0.038,0.084,0.137,0.206,0.125,0.329
					c-0.012,0.125-0.074,0.168-0.09,0.28c-0.013,0.088-0.041,0.231-0.071,0.312c-0.028,0.074-0.059,0.077-0.081,0.072
					c0.024-0.074,0.059-0.178,0.06-0.254c0.002-0.108,0.073-0.285,0.073-0.285s-0.172-0.282-0.19-0.467
					c-0.017-0.188-0.066-0.385-0.146-0.466c-0.08-0.081-0.201-0.035-0.201-0.035s-0.032,0.031-0.115,0.101
					c-0.083,0.07-0.152,0.171-0.159,0.279c-0.006,0.109-0.031,0.227-0.065,0.268c-0.034,0.039-0.111,0.049-0.146,0.102
					c-0.033,0.053,0.063,0.185,0.102,0.234c0.04,0.051,0.051,0.029,0.06-0.063c0.01-0.093,0.073-0.266,0.122-0.411
					c0.05-0.144,0.188-0.303,0.211-0.309c0.024-0.006,0.017,0.026,0.017,0.026c-0.089,0.112-0.147,0.335-0.154,0.509
					c-0.008,0.174-0.066,0.233-0.166,0.327c-0.135,0.127-0.125,0.48-0.127,0.651c-0.004,0.214-0.016,0.319-0.023,0.356
					c-0.007,0.034-0.03,0.042-0.038,0.034c0,0-0.013-0.055,0.012-0.108c0.026-0.054-0.024-0.317-0.003-0.527
					c0.013-0.138,0.018-0.289,0.083-0.411c0,0-0.087-0.088-0.131-0.177c-0.044-0.09-0.048-0.151,0-0.193
					c0.048-0.041,0.115-0.046,0.144-0.128c0.03-0.082,0.03-0.28,0.086-0.354c0,0-0.08,0.053-0.079,0.178
					c0.001,0.126-0.028,0.173-0.068,0.149c-0.041-0.023-0.117-0.183-0.131-0.231c0,0,0.019,0.108,0.043,0.188
					c0.025,0.081,0.026,0.161-0.018,0.161c-0.042-0.001-0.122-0.079-0.183-0.188c-0.061-0.111-0.155-0.192-0.155-0.192
					s-0.106,0.036-0.176,0.037c-0.069,0.002-0.109-0.049-0.13-0.134c-0.021-0.082,0.015-0.211,0.015-0.211s-0.171-0.196-0.265-0.252
					c0,0-0.028,0.081-0.095,0.146c-0.067,0.063-0.074,0.092-0.075,0.107c0,0.014-0.026,0.033-0.054,0.017
					c-0.028-0.016-0.034-0.019-0.059,0.011c-0.024,0.029-0.042,0.09-0.089,0.12c-0.047,0.03-0.169,0.035-0.307,0.085
					c-0.137,0.049-0.436,0.052-0.518,0.052c-0.083-0.002-0.115,0.015-0.138,0.023c-0.024,0.009-0.157,0.08-0.245,0.074
					c-0.087-0.007-0.055-0.066-0.014-0.088c0,0-0.129-0.018-0.155-0.081c-0.026-0.062,0.025-0.065,0.025-0.065
					s-0.187-0.102,0.003-0.123c0,0-0.094-0.064-0.074-0.098c0.021-0.034,0.102-0.032,0.161-0.006
					c0.059,0.028,0.083,0.03,0.065,0.009c-0.02-0.022-0.085-0.103-0.057-0.134c0.026-0.031,0.126,0.007,0.166,0.08
					C-961.044,9.893-960.986,9.989-960.896,9.995L-960.896,9.995z M-957.816,13.453c-0.026-0.059-0.058-0.089-0.091-0.098
					c0.028,0,0.057-0.013,0.086-0.034c0.053-0.04,0.095-0.458,0.109-0.511c0.014-0.052,0.133-0.394,0.073-0.329
					c-0.06,0.064-0.184,0.493-0.186,0.667c-0.001,0.174-0.066,0.173-0.137,0.084c-0.072-0.09-0.223-0.049-0.388,0.039
					c-0.165,0.089-0.15,0.034-0.038-0.205c0.111-0.239,0.36-0.919,0.36-0.919c0.024,0.035,0.128,0.088,0.128,0.088
					c-0.113,0.157-0.205,0.628-0.205,0.628c0.044-0.067,0.255-0.601,0.255-0.601c0.016,0.01,0.102,0.021,0.102,0.021
					c-0.261,0.42-0.274,0.683-0.274,0.683c0.024-0.112,0.337-0.668,0.337-0.668s0,0,0.009,0.002
					c0.009,0.003,0.202,0.023,0.202,0.023c-0.027,0.021-0.072,0.164-0.087,0.189c-0.015,0.025-0.093,0.175-0.115,0.242
					c-0.023,0.064,0.015,0.032,0.039,0.002c0.023-0.028,0.225-0.344,0.264-0.438c0.039-0.093-0.087-0.068-0.298-0.094
					c-0.211-0.026-0.213-0.048-0.278-0.096c-0.065-0.05-0.116-0.142-0.079-0.136c0.037,0.003,0.072,0.034,0.157,0.091
					c0.085,0.056,0.248,0.105,0.26,0.095c0.013-0.01-0.112-0.068-0.255-0.154c-0.143-0.085-0.183-0.199-0.164-0.209
					c0.018-0.009,0.11-0.021,0.191,0.096c0.082,0.119,0.3,0.152,0.365,0.147c0.064-0.006,0.009-0.027-0.163-0.077
					c-0.173-0.049-0.25-0.242-0.238-0.304c0.014-0.061,0.109,0.029,0.227,0.129c0.118,0.101,0.334,0.198,0.394,0.173
					c0.062-0.026,0.134-0.173,0.186-0.252c0.035-0.051,0.05-0.12,0.058-0.159c0.026-0.007,0.063-0.017,0.082-0.024
					c0.033-0.014,0.06-0.056,0.084-0.207c0.024-0.152,0.062-0.22,0.098-0.231c0.037-0.012,0.056-0.046,0.056-0.046
					c0.14,0.245,0.326,0.284,0.365,0.291c0.04,0.005,0.094-0.016,0.121,0.046c0.004,0.012,0.012,0.024,0.022,0.038
					c-0.037,0.004-0.096,0.014-0.111,0.048c-0.021,0.049-0.005,0.094,0.073,0.146c0,0-0.086,0.035-0.028,0.103
					c0.057,0.07,0.052,0.048,0.052,0.048c-0.104,0.322,0.009,0.115-0.034,0.424c-0.018,0.136-0.037,0.559-0.057,0.691
					c-0.021,0.133,0.005,0.247,0.101,0.22c0.095-0.026,0.14-0.126,0.244-0.2c0.084-0.06,0.127-0.046,0.171-0.017
					c-0.02,0.009-0.038,0.024-0.054,0.044c-0.063,0.074-0.148,0.2-0.145,0.26c0,0.002,0,0.005,0,0.007
					c-0.007-0.007-0.012-0.012-0.017-0.015c-0.05-0.036-0.092-0.051-0.091-0.086c0.001-0.035-0.029-0.029-0.04-0.018
					c0,0-0.023,0.047,0.038,0.103c0.06,0.057,0.221,0.202,0.327,0.315c0.106,0.113,0.254,0.135,0.373,0.052
					c0.119-0.083,0.097-0.176,0.036-0.281c-0.056-0.096-0.148-0.236-0.2-0.278c-0.035-0.038-0.066-0.064-0.094-0.083
					c0.017-0.012,0.031-0.027,0.044-0.045c0.039-0.053-0.048-0.465-0.05-0.519c-0.003-0.055,0.006-0.416-0.031-0.337
					c-0.037,0.08-0.026,0.526,0.025,0.691c0.051,0.167-0.011,0.185-0.106,0.122c-0.095-0.063-0.227,0.023-0.357,0.156
					c-0.13,0.134-0.132,0.078-0.098-0.184c0.033-0.263,0.063-0.984,0.063-0.984c0.034,0.025,0.149,0.043,0.149,0.043
					c-0.06,0.185-0.004,0.662-0.004,0.662c0.021-0.077,0.06-0.65,0.06-0.65c0.019,0.006,0.103-0.011,0.103-0.011
					c-0.122,0.481-0.055,0.733-0.055,0.733c-0.011-0.114,0.12-0.737,0.12-0.737s0,0,0.009-0.003c0.009,0,0.2-0.039,0.2-0.039
					c-0.021,0.028-0.02,0.178-0.026,0.207c-0.006,0.028-0.035,0.195-0.037,0.265c-0.002,0.068,0.025,0.026,0.038-0.008
					c0.014-0.035,0.11-0.397,0.12-0.498c0.008-0.101-0.104-0.038-0.313,0c-0.209,0.04-0.217,0.019-0.294-0.007
					c-0.077-0.026-0.153-0.099-0.116-0.104c0.034-0.007,0.07,0.006,0.148,0.03c0.004,0.007,0.006,0.013,0.008,0.014
					c0.003,0.003,0.005,0,0.011-0.009c0.003,0.001,0.007,0.002,0.012,0.002c0.098,0.029,0.268,0.027,0.276,0.013
					c0.009-0.013-0.111-0.03-0.262-0.064c0.004-0.006,0.01-0.015,0.014-0.021c0.006-0.016,0.013-0.034,0.021-0.052
					c-0.003-0.002-0.008-0.007-0.015-0.015c0.119,0.047,0.284,0.018,0.335-0.005c0.059-0.024,0-0.029-0.179-0.023
					c-0.092,0.002-0.172-0.04-0.229-0.089c-0.031-0.049-0.062-0.1-0.089-0.135c0.001-0.053,0.117,0.003,0.255,0.06
					c0.144,0.059,0.378,0.089,0.428,0.044c0.051-0.042,0.076-0.203,0.102-0.295c0.033-0.114,0.051-0.309-0.128-0.194
					c0,0,0.002-0.065-0.029-0.088c-0.031-0.023-0.101,0.014-0.101,0.014s0.005-0.052-0.088-0.036
					c-0.012,0.003-0.024,0.005-0.035,0.01c0,0,0-0.002,0-0.002c-0.012-0.045-0.113-0.077-0.237-0.233
					c-0.014-0.016-0.137-0.188-0.151-0.239c-0.015-0.052-0.324-0.54-0.334-0.555l-0.037,0.074c0.033,0.062,0.429,0.713,0.504,0.792
					c0.069,0.071,0.138,0.129,0.178,0.213c-0.029,0.027-0.047,0.054-0.047,0.054s-0.079-0.032-0.136,0.029
					c-0.055,0.061-0.197,0.263-0.125,0.284c0,0-0.04,0.001-0.063,0.024c-0.004-0.002-0.007-0.004-0.01-0.005
					c-0.037-0.007-0.188-0.031-0.169-0.093c0.017-0.063,0.185-0.136,0.243-0.166c0.058-0.03,0.031-0.048-0.054-0.018
					c-0.084,0.029-0.176,0.048-0.213,0.037c-0.036-0.012-0.104-0.047-0.104-0.047c0.169-0.141,0.184-0.236,0.184-0.281
					c0-0.047-0.069-0.286-0.069-0.118c0,0.107-0.051,0.17-0.115,0.216c-0.004-0.05-0.027-0.102-0.059-0.156
					c-0.075-0.13-0.203-0.321-0.261-0.354c-0.059-0.032-0.091-0.038-0.058,0.01c0.032,0.046,0.325,0.436,0.296,0.552
					c-0.01,0.004-0.021,0.011-0.031,0.015c-0.1,0.054-0.099,0.14-0.185,0.192c-0.086,0.052-0.103,0.163-0.106,0.193
					c-0.003,0.03-0.016,0.18-0.038,0.226c-0.015,0.03-0.049,0.044-0.071,0.048c-0.003-0.002-0.006-0.008-0.012-0.016
					c-0.021-0.026-0.108-0.004-0.108-0.004s0.021-0.061-0.001-0.094c-0.021-0.031-0.101-0.016-0.101-0.016s0.021-0.049-0.072-0.063
					c-0.094-0.015-0.188,0.063-0.188,0.063s-0.065-0.057-0.139-0.015c-0.074,0.043-0.17,0.189-0.17,0.189s-0.005-0.005-0.012-0.032
					c-0.006-0.024-0.068-0.128-0.068-0.128s0,0,0.012-0.012c0.012-0.01,0.016-0.124,0.017-0.136l0,0
					c0.008-0.096,0.019-0.268,0.006-0.344c-0.02-0.109-0.054-0.325-0.046-0.401c0.009-0.076,0.007-0.121-0.009-0.124
					c-0.017-0.004-0.052,0.168-0.048,0.237c0.003,0.056-0.017,0.38-0.035,0.553c-0.011,0.044-0.031,0.127-0.055,0.21
					c-0.035,0.12-0.081,0.425-0.154,0.441c-0.073,0.017-0.099,0.114-0.102,0.238c-0.002,0.124-0.034,0.279-0.047,0.301
					c-0.012,0.021-0.039,0.083,0.018,0.04c0.058-0.044,0.085-0.261,0.085-0.261c0.039,0.021,0.064,0.188,0.064,0.188
					s0.008,0.028-0.05,0.152c-0.059,0.122-0.205,0.521-0.264,0.641c-0.06,0.118-0.069,0.235,0.03,0.239
					c0.099,0.004,0.172-0.077,0.293-0.116c0.122-0.04,0.148,0.012,0.193,0.066c0.014,0.016,0.027,0.025,0.042,0.029
					c-0.023-0.001-0.048,0.005-0.073,0.017c-0.09,0.033-0.224,0.107-0.248,0.16c-0.004,0.009-0.009,0.018-0.012,0.027
					c-0.012-0.022-0.022-0.04-0.028-0.048c-0.037-0.051-0.073-0.077-0.062-0.108c0.011-0.034-0.018-0.038-0.032-0.03
					c0,0-0.037,0.036,0.004,0.109c0.041,0.075,0.149,0.26,0.216,0.4c0.067,0.14,0.201,0.206,0.339,0.164
					c0.139-0.043,0.146-0.139,0.12-0.257C-957.731,13.673-957.779,13.507-957.816,13.453L-957.816,13.453z M-958.242,13.593
					c0.058-0.036,0.327-0.208,0.381-0.107c0.009,0.016,0.017,0.033,0.023,0.051c0.01,0.032,0.021,0.067,0.032,0.105v0.002l0,0
					c0.035,0.127,0.063,0.273,0.023,0.304c-0.069,0.059-0.181,0.076-0.249,0C-958.081,13.893-958.179,13.707-958.242,13.593
					L-958.242,13.593z M-955.926,13.246c0.042-0.069,0.192-0.325,0.283-0.264c0.021,0.015,0.043,0.031,0.064,0.052
					c0.071,0.098,0.254,0.359,0.212,0.425c-0.048,0.077-0.149,0.126-0.236,0.075C-955.671,13.497-955.833,13.335-955.926,13.246
					L-955.926,13.246z M-956.148,11.482c-0.055-0.009-0.091,0.012-0.101,0.021c-0.014,0.014,0.049,0.098,0.191,0.141
					c0-0.004,0-0.009,0-0.014C-956.058,11.603-956.106,11.541-956.148,11.482L-956.148,11.482z M-956.047,11.272
					c0,0,0.049-0.276,0.133-0.299c0,0,0.052,0.215,0.051,0.283c0,0,0.015,0.005,0.029-0.039c0.013-0.043,0.018-0.183-0.002-0.22
					c0,0,0.049-0.118,0.148-0.126c0,0,0.034,0.044,0.005,0.169c-0.03,0.125-0.03,0.195-0.03,0.195s0.058-0.074,0.074-0.145
					c0.017-0.069,0.022-0.161,0.041-0.184c0.02-0.022,0.043-0.016,0.043-0.016s0.015,0.143-0.009,0.252
					c-0.023,0.11-0.021,0.142-0.012,0.14c0.01-0.004,0.076-0.13,0.083-0.198c0.007-0.068,0.01-0.111,0.031-0.117
					c0.023-0.007,0.055-0.036,0.05,0.038c-0.004,0.075-0.064,0.396-0.078,0.405C-955.503,11.422-955.831,11.373-956.047,11.272
					L-956.047,11.272z M-959.606,7.357c0,0-0.215,0.149-0.206,0.271c0.01,0.122,0.101,0.169,0.201,0.188
					c0.099,0.02,0.181,0.049,0.185,0.066c0.005,0.017,0.026-0.003,0.019-0.021c-0.008-0.017-0.009-0.034-0.111-0.051
					c-0.103-0.017-0.236-0.054-0.257-0.144C-959.798,7.578-959.763,7.518-959.606,7.357L-959.606,7.357z M-957.765,10.419
					c0,0,0.031,0.11,0.096,0.216c0.064,0.106,0.044,0.211,0.044,0.211S-957.785,10.571-957.765,10.419L-957.765,10.419z
					 M-958.125,12.219c0,0-0.088-0.173-0.083-0.262c0.005-0.088,0.083-0.097,0.101-0.142c0.018-0.042,0.048-0.089,0.054-0.114
					c0.006-0.024,0.058-0.303,0.089-0.349c0,0,0.097,0.236,0.13,0.259c0,0-0.096-0.028-0.1,0.064
					c-0.005,0.092,0.017,0.103,0.017,0.103s-0.112-0.036-0.148,0.005c-0.036,0.041-0.033,0.088,0.025,0.159
					c0,0-0.093,0.009-0.06,0.092c0.035,0.083,0.037,0.063,0.037,0.063S-958.111,12.164-958.125,12.219L-958.125,12.219z
					 M-957.767,11.659c0,0,0.131-0.25,0.218-0.245c0,0-0.016,0.221-0.037,0.285c0,0,0.013,0.009,0.039-0.028
					c0.026-0.037,0.073-0.168,0.064-0.211c0,0,0.083-0.096,0.18-0.075c0,0,0.019,0.054-0.048,0.163
					c-0.066,0.111-0.086,0.177-0.086,0.177s0.077-0.053,0.113-0.114c0.037-0.063,0.07-0.148,0.095-0.164
					c0.025-0.015,0.046-0.001,0.046-0.001s-0.028,0.141-0.084,0.237c-0.056,0.097-0.063,0.128-0.054,0.128
					c0.009,0,0.11-0.1,0.138-0.162c0.027-0.062,0.044-0.103,0.066-0.103c0.022,0.001,0.063-0.018,0.036,0.052
					c-0.027,0.069-0.182,0.357-0.197,0.363C-957.294,11.966-957.593,11.82-957.767,11.659L-957.767,11.659z M-959.157,11.896
					c0,0,0.162-0.059,0.366,0.089c0.205,0.148,0.207,0.363,0.326,0.454c0.118,0.089,0.106,0.207,0.014,0.244
					c-0.092,0.038-0.184,0.001-0.228-0.032c-0.044-0.036-0.136-0.228-0.294-0.361C-959.131,12.155-959.271,11.985-959.157,11.896
					L-959.157,11.896z M-959.122,11.93c0,0,0.177-0.003,0.331,0.142c0.155,0.143,0.164,0.308,0.257,0.396
					c0.094,0.088,0.132,0.137,0.059,0.183c-0.073,0.045-0.168-0.015-0.2-0.072c-0.031-0.057-0.141-0.249-0.299-0.371
					C-959.131,12.087-959.179,11.964-959.122,11.93L-959.122,11.93z M-958.157,8.343c0,0-0.009,0.008-0.02,0
					c-0.011-0.009-0.073-0.125-0.129-0.192c-0.055-0.068-0.046-0.131-0.001-0.185c0.044-0.057,0.094-0.083,0.094-0.083
					s-0.049,0.154-0.006,0.23C-958.176,8.187-958.149,8.312-958.157,8.343L-958.157,8.343z M-956.88,6.811
					c0,0,0.021-0.004,0.078-0.042c0.057-0.039,0.095-0.05,0.127-0.061c0.032-0.014,0.048-0.018,0.048-0.018s0.114,0.181,0.132,0.33
					c0.018,0.149,0.124,0.262,0.124,0.262s-0.025,0.036-0.052,0.061c-0.027,0.023,0.003,0.032,0.016,0.016
					c0.012-0.018,0.063-0.034,0.063-0.034s0.03,0.164-0.034,0.21c-0.065,0.047-0.107,0.023-0.259,0.17
					c-0.153,0.145-0.28,0.357-0.596,0.466c-0.316,0.106-0.369,0.122-0.358,0.136c0.011,0.015,0.277,0.007,0.41-0.002
					c0.134-0.009,0.221-0.058,0.221-0.058s0.221,0.21,0.221,0.775c0,0-0.249-0.14-0.466-0.453c0,0-0.075-0.015-0.042,0.051
					c0.033,0.066,0.264,0.41,0.383,0.525c0,0-0.216-0.057-0.548-0.264c0,0-0.102-0.009-0.029,0.048
					c0.073,0.056,0.208,0.2,0.42,0.309c0.212,0.107,0.382,0.193,0.357,0.224c-0.027,0.031-0.086,0.03-0.196,0.023
					c-0.111-0.007-0.079,0.108-0.167,0.174c-0.089,0.064-0.102,0.049-0.162,0.059c-0.061,0.007-0.244-0.043-0.393,0.078
					c-0.149,0.122-0.207,0.412-0.207,0.412s-0.101-0.341-0.358-0.276c0,0,0.025-0.194-0.198-0.223c0,0,0.12-0.077,0.103-0.13
					c-0.017-0.052-0.1-0.177-0.137-0.264c-0.037-0.087-0.059-0.102-0.059-0.102s0.043-0.034,0.059-0.036
					c0.016-0.001,0.009-0.026-0.017-0.037c-0.027-0.011-0.246-0.255-0.279-0.313c0,0,0.232-0.331,0.477-0.409
					c0.245-0.078,0.013,0.002,0.013,0.002s0.297,0.786,0.338,0.823c0,0-0.24-0.224-0.321-0.3c0,0,0.13,0.233,0.274,0.328
					c0.145,0.093,0.254,0.385,0.306,0.385c0.052,0-0.003-0.085-0.054-0.159c-0.05-0.074-0.307-0.619-0.36-0.766
					c-0.052-0.147-0.097-0.279-0.088-0.323c0.008-0.04,0.008-0.04,0.008-0.04s0.25-0.047,0.282-0.098
					c0.033-0.05-0.106-0.082-0.12-0.125c-0.014-0.044,0.104-0.107,0.19-0.128c0.085-0.018,0.162-0.111,0.197-0.188
					c0.034-0.077,0.121-0.121,0.344-0.189c0.223-0.067,0.311-0.14,0.311-0.14s0.019,0.103-0.015,0.144c0,0,0.094-0.048,0.072-0.191
					c0,0-0.005-0.048,0.023-0.105C-956.776,7.295-956.814,7.014-956.88,6.811L-956.88,6.811z M-959.444,7.954
					c0,0,0.31-0.181,0.643-0.416c0.333-0.236,0.554-0.416,0.593-0.451c0.04-0.036,0.046-0.043,0.046-0.043s0.028,0.018,0.044,0.018
					c0.016,0,0.016,0,0.016,0s-0.012,0.042-0.006,0.048c0.006,0.007,0.003,0.007,0.003,0.007s-0.357,0.345-0.385,0.377
					c-0.028,0.033-0.114,0.163-0.484,0.332c-0.371,0.17-0.417,0.199-0.434,0.191C-959.424,8.009-959.439,7.966-959.444,7.954
					L-959.444,7.954z M-961.153,9.881c0,0-0.052-0.08-0.063-0.091c-0.011-0.012,0.014-0.043,0.049-0.006
					c0.035,0.036,0.063,0.083,0.105,0.152c0.042,0.067,0.105,0.108,0.217,0.102c0.112-0.005,0.191-0.05,0.232-0.084
					c0.041-0.034,0.094-0.07,0.184-0.088c0.09-0.018,0.292-0.125,0.322-0.237c0,0,0.104,0.189,0.161,0.215
					c0,0-0.073,0.08-0.099,0.144c-0.026,0.065-0.092,0.076-0.111,0.081c-0.019,0.005-0.234,0.089-0.427,0.099
					c-0.192,0.008-0.32,0.008-0.365,0.018c-0.043,0.009-0.135,0.067-0.174,0.08c-0.039,0.014-0.062,0.017-0.036-0.011
					c0.027-0.025,0.034-0.053-0.021-0.06c-0.056-0.007-0.12-0.015-0.148-0.045c0,0-0.002-0.005,0.035-0.006
					c0.039,0,0.083,0.009,0.088-0.015c0.005-0.023,0.003-0.045-0.045-0.054c-0.048-0.009-0.105-0.043-0.11-0.05
					c-0.005-0.008,0.065-0.001,0.101,0.014c0.036,0.014,0.061,0.024,0.065-0.004c0.004-0.029-0.125-0.112-0.15-0.124
					c-0.025-0.014-0.019-0.035,0.014-0.022c0.034,0.012,0.136,0.076,0.158,0.064C-961.152,9.945-961.124,9.936-961.153,9.881
					L-961.153,9.881z M-960.267,8.762c0,0,0.106-0.151,0.208-0.216c0.102-0.063,0.178-0.076,0.201-0.093
					c0.022-0.02,0.036-0.03,0.036-0.021c0.001,0.011-0.058,0.136-0.155,0.206C-960.075,8.71-960.251,8.769-960.267,8.762
					L-960.267,8.762z M-958.636,9.331c0,0,0.128-0.085,0.15-0.095c0,0,0.108,0.289,0.189,0.339c0,0-0.313,0.241-0.455,0.321
					c-0.141,0.079-0.212,0.148-0.254,0.165c-0.042,0.017-0.073,0.062-0.089,0.11c-0.016,0.051-0.149,0.059-0.169,0.058
					c-0.02-0.002-0.044-0.037-0.043-0.119c0.002-0.081,0.007-0.113,0.038-0.113c0.032,0,0.2-0.017,0.312-0.116
					c0.112-0.099,0.206-0.265,0.24-0.289C-958.682,9.565-958.586,9.491-958.636,9.331L-958.636,9.331z M-958.872,9.205
					c0,0,0.047,0.055,0.086,0.087c0.04,0.03,0.068,0.102,0.043,0.173c-0.024,0.069-0.002,0.075,0.029,0.038
					c0.032-0.037,0.047-0.118,0.047-0.13c0-0.013-0.014-0.005-0.025,0.005c-0.01,0.01-0.025-0.01-0.037-0.038
					C-958.741,9.309-958.863,9.187-958.872,9.205L-958.872,9.205z M-958.76,9.985c0,0,0.38-0.261,0.385-0.262
					c0.004-0.003,0.05,0.027,0.07,0.031c0.02,0.005,0.135,0.106,0.088,0.182c-0.047,0.076-0.209,0.159-0.271,0.194
					c-0.062,0.034-0.134,0.162-0.117,0.324c0,0-0.096-0.064-0.113-0.223C-958.736,10.075-958.738,10.016-958.76,9.985L-958.76,9.985
					z M-959.014,10.231c0,0-0.037-0.034,0.001-0.072c0.038-0.039,0.228-0.156,0.228-0.156s-0.1,0.17,0.043,0.555
					c0,0-0.008,0.013-0.042-0.031C-958.817,10.481-958.962,10.27-959.014,10.231L-959.014,10.231z M-956.775,6.138
					c0,0,0.042,0.023,0.093,0.024c0.052,0.001,0.091,0.056,0.108,0.115c0.017,0.059,0.016,0.113,0.037,0.116
					c0.022,0,0.041,0.004,0.041,0.004s0.063,0.348,0.06,0.371c-0.003,0.022-0.031,0.022-0.043,0.04
					c-0.013,0.019-0.01,0.019-0.01,0.019s-0.079-0.174-0.128-0.219c-0.048-0.043-0.045-0.041-0.045-0.041s-0.096-0.228-0.114-0.25
					C-956.777,6.318-956.757,6.22-956.775,6.138L-956.775,6.138z M-956.229,7.185c0,0-0.146-0.125-0.199-0.343
					c0,0,0.031-0.022,0.052-0.022c0.02,0,0.015-0.068,0.001-0.134c-0.014-0.065-0.057-0.269-0.057-0.269s0.125,0.057,0.238-0.097
					c0,0,0.126,0.598,0.129,0.629c0.002,0.032,0.023,0.067-0.025,0.112C-956.14,7.104-956.219,7.171-956.229,7.185L-956.229,7.185z
					 M-956.526,5.827l0.056-0.05c0,0,0.045,0.011,0.061,0.076c0.017,0.066,0.047,0.109,0.095,0.123
					c0.047,0.012,0.127,0.102,0.127,0.115c-0.001,0.015-0.022,0.072-0.035,0.076c-0.013,0.005-0.035-0.069-0.089-0.098
					c-0.055-0.031-0.076-0.059-0.083-0.08c-0.007-0.021-0.024-0.037-0.036-0.049c-0.012-0.011-0.004-0.013-0.011-0.038
					c-0.007-0.024-0.033-0.056-0.046-0.062C-956.502,5.838-956.524,5.825-956.526,5.827L-956.526,5.827z M-956.843,5.793
					c0,0,0.05-0.065,0.094-0.073c0.044-0.009,0.136-0.077,0.154-0.093c0.02-0.013,0.042-0.007,0.045,0
					c0.003,0.009-0.108,0.117-0.12,0.129c-0.011,0.013-0.017-0.008-0.032-0.019c-0.016-0.01-0.071-0.02-0.105,0.039
					C-956.841,5.832-956.837,5.803-956.843,5.793L-956.843,5.793z M-956.762,5.803l0.019-0.019c0,0,0.02,0.021,0.037,0.098
					c0.018,0.075,0.038,0.097,0.075,0.084c0.037-0.012,0.177-0.048,0.164,0.131c0,0-0.055-0.078-0.183-0.063
					C-956.778,6.048-956.752,5.862-956.762,5.803L-956.762,5.803z M-956.693,6.627l-0.048,0.013c0,0-0.19-0.253-0.21-0.301
					c-0.019-0.05-0.034-0.096-0.012-0.159c0.022-0.065,0.01-0.208,0.032-0.261c0.021-0.053,0.039-0.083,0.048-0.07
					c0.008,0.012,0.002,0.171,0.01,0.191c0.008,0.02,0.052,0.211,0.011,0.274C-956.862,6.314-956.694,6.627-956.693,6.627
					L-956.693,6.627z M-957.548,7.444c0,0,0.009-0.11,0.001-0.13c0,0,0.296-0.012,0.375-0.051c0.08-0.04-0.003,0-0.003,0
					s-0.003,0.095-0.025,0.138c0,0-0.06-0.046-0.075-0.049c-0.015-0.004-0.034,0.002-0.016,0.018
					c0.018,0.017,0.042,0.042,0.042,0.042S-957.392,7.455-957.548,7.444L-957.548,7.444z M-957.599,7.515
					c0,0,0.004,0.083,0.01,0.083c0.004,0,0.031-0.085,0.031-0.085s0.272-0.013,0.336-0.03c0,0-0.023,0.092-0.028,0.102
					c-0.005,0.012-0.066-0.057-0.114-0.069c-0.047-0.011-0.019,0.027,0.002,0.031c0.021,0.008,0.045,0.027,0.017,0.033
					c-0.028,0.005-0.186,0.05-0.251,0.048c-0.064,0-0.314-0.208-0.318-0.215c-0.004-0.005-0.001-0.008,0.021,0.004
					c0.021,0.01,0.18,0.089,0.214,0.098C-957.648,7.522-957.6,7.515-957.599,7.515L-957.599,7.515z M-957.966,7.311l0.054,0.025
					l0.339-0.02l-0.015,0.13c0,0-0.063,0.011-0.099,0.002c-0.036-0.01-0.268-0.115-0.268-0.115S-957.975,7.325-957.966,7.311
					L-957.966,7.311z M-957.187,7.515c0,0,0.013-0.059,0.063-0.101c0.05-0.042,0.221-0.101,0.242-0.103
					c0.02-0.004,0.017-0.001,0.017-0.001s-0.008,0.041-0.009,0.048C-956.877,7.366-957.117,7.466-957.187,7.515L-957.187,7.515z
					 M-957.427,6.537c0,0-0.022-0.019-0.032-0.027c-0.01-0.008-0.01-0.008-0.01-0.008s0.073-0.052,0.087-0.065
					c0.014-0.014,0.039-0.031,0.048-0.019c0.01,0.012,0.004,0.032-0.027,0.061C-957.39,6.506-957.41,6.525-957.427,6.537
					L-957.427,6.537z M-957.402,7.164c0,0,0.18,0.028,0.196,0.031c0.014,0.008-0.09,0.052-0.205,0.051
					c-0.114,0-0.335,0.021-0.371,0.021c-0.036,0-0.089,0.017-0.112-0.039c-0.023-0.058-0.037-0.109-0.037-0.109
					s0.133,0.026,0.224,0.012c0.091-0.018,0.426-0.122,0.52-0.164c0.093-0.04,0.128-0.082,0.085-0.115
					c-0.044-0.034-0.184-0.063-0.198-0.063c0,0-0.028-0.153-0.086-0.197c0,0,0.062-0.041,0.097-0.084
					c0.035-0.043,0.04-0.053,0.04-0.053l0.017,0.001l0.054-0.048c0,0,0.133,0.137,0.163,0.19c0.03,0.055,0.052,0.083,0.052,0.083
					s0.098,0.462,0.098,0.553c0,0-0.025,0.012-0.034,0.032c0,0-0.209,0.061-0.247,0.096c0,0,0.014-0.091,0.008-0.11
					c0,0,0.05-0.02,0.039-0.056c-0.012-0.034-0.157-0.057-0.253-0.07c-0.098-0.014-0.11-0.015-0.116,0.002
					C-957.474,7.142-957.474,7.161-957.402,7.164L-957.402,7.164z"/>
			</g>
		</g>
	</g>
</g>
</svg>
